<?xml version="1.0" encoding="UTF-8" standalone="no"?>
<svg
   viewBox="0 0 50 50"
   width="50px"
   height="50px"
   version="1.1"
   id="svg1"
   sodipodi:docname="instagram.svg"
   inkscape:version="1.3.2 (091e20e, 2023-11-25)"
   xmlns:inkscape="http://www.inkscape.org/namespaces/inkscape"
   xmlns:sodipodi="http://sodipodi.sourceforge.net/DTD/sodipodi-0.dtd"
   xmlns="http://www.w3.org/2000/svg"
   xmlns:svg="http://www.w3.org/2000/svg">
  <defs
     id="defs1" />
  <sodipodi:namedview
     id="namedview1"
     pagecolor="#ffffff"
     bordercolor="#000000"
     borderopacity="0.25"
     inkscape:showpageshadow="2"
     inkscape:pageopacity="0.0"
     inkscape:pagecheckerboard="0"
     inkscape:deskcolor="#d1d1d1"
     showgrid="false"
     inkscape:zoom="12.68"
     inkscape:cx="24.960568"
     inkscape:cy="25"
     inkscape:window-width="1312"
     inkscape:window-height="449"
     inkscape:window-x="0"
     inkscape:window-y="25"
     inkscape:window-maximized="0"
     inkscape:current-layer="svg1" />
  <path
     d="M 14.5,2.9444444 C 8.1266667,2.9444444 2.9444444,8.1266667 2.9444444,14.5 v 16 c 0,6.373333 5.1822223,11.555555 11.5555556,11.555555 h 16 c 6.373333,0 11.555555,-5.182222 11.555555,-11.555555 v -16 C 42.055555,8.1266667 36.873333,2.9444444 30.5,2.9444444 Z m 18.666666,7.1111106 c 0.977778,0 1.777779,0.800001 1.777779,1.777778 0,0.977778 -0.800001,1.777778 -1.777779,1.777778 -0.977777,0 -1.777777,-0.8 -1.777777,-1.777778 0,-0.977777 0.8,-1.777778 1.777777,-1.777778 z M 22.5,12.722222 c 5.395555,0 9.777778,4.382222 9.777778,9.777778 0,5.395556 -4.382223,9.777778 -9.777778,9.777778 -5.395555,0 -9.777778,-4.382222 -9.777778,-9.777778 0,-5.395556 4.382223,-9.777778 9.777778,-9.777778 z M 22.5,14.5 c -4.408889,0 -8,3.591111 -8,8 0,4.408889 3.591111,8 8,8 4.408889,0 8,-3.591111 8,-8 0,-4.408889 -3.591111,-8 -8,-8 z"
     id="path1"
     style="fill:#ffdae9;fill-opacity:1;stroke:#000000;stroke-width:0.888889;stroke-opacity:1" />
</svg>
