<svg xmlns="http://www.w3.org/2000/svg" width="250" viewBox="0 0 187.5 187.5" height="250" version="1.0"><defs><clipPath id="d"><path d="M7 5h169v159H7Zm0 0"/></clipPath><clipPath id="e"><path d="M.496 22.258 170.38.34l19.625 152.078L20.117 174.34Zm0 0"/></clipPath><clipPath id="f"><path d="M.496 22.258 170.38.34l19.625 152.078L20.117 174.34Zm0 0"/></clipPath><clipPath id="g"><path d="M.496 22.258 170.38.34l19.625 152.078L20.117 174.34Zm0 0"/></clipPath><clipPath id="c"><path d="M0 0h184v175H0z"/></clipPath><filter x="0%" y="0%" width="100%" height="100%" id="a"><feColorMatrix values="0 0 0 0 1 0 0 0 0 1 0 0 0 0 1 0 0 0 1 0" color-interpolation-filters="sRGB"/></filter><mask id="b"><g filter="url(#a)"><path fill-opacity=".15" d="M-18.75-18.75h225v225h-225z"/></g></mask></defs><path d="M64.824 99.826a6.858 6.858 0 0 1-.921-.468c-.356-.25-.672-.477-.954-.672-1.023-.801-1.765-1.774-2.234-2.922-.469-1.145-.789-2.774-.953-4.89a51.206 51.206 0 0 1-.125-2.485c-.043-.957-.07-2-.078-3.125-.024-2.094.004-4.281.078-6.563.062-2.281.156-4.203.281-5.765l.094-1.078c0-.313-.012-.461-.031-.454-.063-.05-.532.133-1.407.547-.843.438-1.793.93-2.843 1.469-.563.305-1.137.602-1.72.89l-1.437.829c-.632.375-1.21.699-1.734.969-.55.293-.875.449-.969.468-.312.055-.812-.125-1.5-.531-.53-.344-.812-.61-.843-.797-.008-.05-.004-.086.015-.11.043-.062.336-.241.875-.546.555-.332 1.188-.707 1.906-1.125a83.153 83.153 0 0 1 9.329-4.61 75.684 75.684 0 0 1 9.328-3.265c.55-.156 1.039-.281 1.468-.375.395-.113.739-.207 1.032-.281l.547-.078c.425-.07.742-.086.953-.047.3.054.656.195 1.062.422.664.386 1.016.668 1.047.843.031.168-.262.297-.875.39-.574.095-1.434.31-2.578.642-1.149.312-2.336.664-3.563 1.046-.656.211-1.296.422-1.921.641-.625.23-1.211.453-1.75.672-.274.086-.7.25-1.282.5l-.234 2.031a69.77 69.77 0 0 0-.36 3.906c-.074 1.399-.14 2.82-.203 4.266a136.647 136.647 0 0 0-.03 7.781c.062 2.532.202 4.48.421 5.844.227 1.594.5 2.727.813 3.39.312.7.816 1.337 1.515 1.923.57.437.832.734.781.89-.011.063-.043.094-.093.094-.157.031-.461-.059-.907-.266ZM76.154 69.864c.352.168.614.309.782.422.144.149.242.297.296.453v.047c.02.149.036.528.047 1.14v1.985c-.03.492-.058.918-.078 1.281-.031.399-.058.688-.078.875-.031.262-.105.418-.219.47-.093.042-.367-.009-.812-.157-.555-.188-.957-.383-1.219-.594-.281-.195-.441-.414-.484-.656-.051-.113-.07-.469-.063-1.063.012-.562.031-1.195.063-1.906.054-.894.105-1.535.156-1.922.062-.414.203-.656.422-.718h.031a.753.753 0 0 1 .422.078c.195.043.441.133.734.265Zm.25 9.532c.188.093.485.261.891.5-.012.511-.016 1.296-.016 2.359-.062 2.574.051 4.758.344 6.547.32 1.824.797 3.183 1.422 4.078.332.531.508.836.531.906.008.074-.11.14-.36.203-.148.024-.339-.007-.577-.093a5.802 5.802 0 0 1-.89-.438c-.438-.25-.763-.492-.97-.734-.21-.239-.449-.586-.718-1.047-.563-.977-.993-2.344-1.297-4.094-.282-1.781-.407-3.836-.375-6.172-.008-.539.008-1.031.047-1.469.023-.445.054-.71.093-.796 0-.051.016-.086.047-.11.031-.062.074-.097.125-.11.156-.07.383-.07.672 0 .3.095.645.25 1.031.47ZM83.44 101.01c-.243-.117-.465-.23-.672-.343a5.835 5.835 0 0 1-.47-.297c-.148-.117-.312-1.172-.5-3.172-.23-1.96-.46-4.691-.687-8.203-.062-.82-.156-2.094-.28-3.813-.138-.05-.368-.132-.688-.25-1.032-.457-1.586-.789-1.672-1l-.016-.03c-.031-.208.29-.516.953-.923.262-.133.5-.273.719-.422.23-.132.367-.218.422-.25.031-.03.055-.39.078-1.078.031-.695.047-1.531.047-2.5-.031-3.343.086-6.004.36-7.984.269-2 .702-3.461 1.296-4.39.383-.614.774-1.024 1.172-1.235.156-.07.328-.14.516-.203.27-.04.582-.024.937.047.5.086 1.07.273 1.719.562.625.324 1.066.625 1.328.906.238.282.43.72.578 1.313.05.156.094.308.125.453.063.406.07.813.031 1.219-.054.75-.203 1.183-.453 1.297-.262.117-.789-.024-1.578-.422-.219-.114-.543-.27-.969-.469l.094-1.266c.02-.757.02-1.21 0-1.359-.023-.125-.105-.176-.25-.156-.344.094-.71.75-1.094 1.969-.367 1.23-.605 2.617-.718 4.156-.043.48-.079 1.023-.11 1.625-.043.562-.062 1.14-.062 1.734-.043 1.125-.04 2.11.015 2.953.008.887.047 1.352.11 1.39.05.056.242.06.578.017.32 0 .676-.032 1.062-.094.72-.114 1.282-.156 1.688-.125.394.062.844.23 1.344.5.437.242.613.433.53.578-.105.125-.538.266-1.296.422a18 18 0 0 0-2.516.687c-.898.336-1.367.59-1.406.766-.055.156-.055.871 0 2.14.063 1.274.16 2.836.297 4.688.094 1.023.176 2.078.25 3.172.113 1.125.21 2.27.297 3.437.094 1.07.18 1.993.265 2.766.051.781.063 1.203.032 1.266-.024.082-.09.144-.203.187a.75.75 0 0 1-.188 0c-.23-.023-.57-.11-1.016-.265ZM95.228 99.107c-.242-.117-.465-.23-.672-.344a5.835 5.835 0 0 1-.468-.297c-.149-.117-.313-1.171-.5-3.171-.23-1.961-.461-4.692-.688-8.204-.062-.82-.156-2.093-.281-3.812l-.688-.25c-1.031-.457-1.586-.79-1.672-1l-.015-.031c-.031-.207.289-.516.953-.922.262-.133.5-.274.719-.422.23-.133.367-.219.422-.25.03-.031.054-.39.078-1.078.03-.696.047-1.531.047-2.5-.032-3.344.085-6.004.359-7.985.27-2 .703-3.46 1.297-4.39.383-.613.773-1.024 1.172-1.235.156-.07.328-.14.515-.203.27-.039.582-.023.938.047.5.086 1.07.274 1.719.563.625.324 1.066.625 1.328.906.238.281.43.719.578 1.312.05.157.094.309.125.454.062.406.07.812.031 1.218-.055.75-.203 1.184-.453 1.297-.262.117-.79-.023-1.578-.422-.219-.113-.543-.27-.969-.468.02-.27.05-.692.094-1.266.02-.758.02-1.211 0-1.36-.024-.124-.106-.175-.25-.156-.344.094-.711.75-1.094 1.969-.367 1.23-.605 2.617-.719 4.156-.043.48-.078 1.024-.11 1.625-.042.563-.062 1.14-.062 1.735-.043 1.125-.039 2.109.016 2.953.008.887.047 1.351.11 1.39.05.055.242.059.578.016.32 0 .675-.031 1.062-.094.719-.113 1.281-.156 1.688-.125.394.063.843.23 1.343.5.438.242.614.434.532.578-.106.125-.54.266-1.297.422a18 18 0 0 0-2.516.688c-.898.336-1.367.59-1.406.765-.055.157-.055.872 0 2.141.062 1.273.16 2.836.297 4.688.093 1.023.175 2.078.25 3.171.113 1.125.21 2.27.297 3.438.093 1.07.18 1.992.265 2.766.05.78.063 1.203.031 1.265-.023.082-.09.145-.203.188a.75.75 0 0 1-.187 0c-.23-.024-.57-.11-1.016-.266ZM119.217 63.738c.437.011 1.02.25 1.75.718.738.461 1.254.883 1.547 1.266.289.438.484 1 .578 1.688.102.68.066 1.39-.11 2.14-.136.625-.398 1.453-.78 2.485-.387 1-.758 1.789-1.11 2.359a2.59 2.59 0 0 0-.234.516c-.063.21-.09.375-.079.5.04.21.422.652 1.141 1.328.727.668 1.406 1.187 2.031 1.562.188.125.457.305.813.531.125-.164.32-.414.594-.75.132-.226.336-.593.609-1.093.25-.52.469-1.024.656-1.516.219-.508.422-.953.61-1.328.164-.375.27-.567.312-.578.125-.02.504.183 1.14.61.657.405 1.048.698 1.173.874.03.094.07.2.125.313.039.242.003.554-.11.937-.168.594-.5 1.39-1 2.39-.21.345-.48.884-.812 1.61.133.125.347.34.64.64.57.512.82.852.75 1.016-.086.2-.465.149-1.14-.156a7.904 7.904 0 0 1-.578-.219c-.22-.062-.368-.086-.438-.078-.074.012-.21.133-.406.36-.242.21-.492.445-.75.703-1.25 1.492-2.492 2.652-3.719 3.484-1.2.836-2.309 1.336-3.328 1.5-.375.063-.73.094-1.063.094-.343.012-.585 0-.718-.031-.387-.133-.934-.453-1.64-.953-.7-.52-1.15-.942-1.345-1.266-.242-.375-.406-.848-.5-1.422l-.047-.297a7.579 7.579 0 0 1 .141-2.094c.207-.82.457-1.593.75-2.312.3-.727.82-1.77 1.563-3.125.289-.488.71-1.238 1.265-2.25-.168-.3-.398-.754-.687-1.36a10 10 0 0 1-.938-2.718c-.18-.989-.187-1.844-.031-2.563a4.877 4.877 0 0 1 1.047-2.265c.562-.633 1.16-1.032 1.797-1.188l.11-.015.187-.032a.726.726 0 0 1 .234-.015Zm-.563 5.297a6.096 6.096 0 0 0-.093 1.484c.039.45.125.668.25.656.05-.008.144-.144.281-.406.144-.25.289-.547.437-.89.352-.977.598-1.805.735-2.485.113-.664.062-.977-.156-.938-.168.024-.434.344-.797.97-.367.655-.586 1.194-.657 1.609Zm-.406 10.609a20.952 20.952 0 0 0-1.297 3.187c-.355 1.075-.496 1.825-.422 2.25.04.293.27.391.688.297.375-.082.941-.363 1.703-.843.344-.196.695-.422 1.063-.672.382-.282.675-.504.875-.672.562-.469 1.226-1.14 2-2.016.78-.863 1.16-1.351 1.14-1.469-.012-.07-.09-.171-.234-.296a3.152 3.152 0 0 0-.563-.438c-.199-.102-.484-.3-.859-.594-.398-.289-.762-.566-1.094-.828a7.643 7.643 0 0 0-.765-.578c-.211-.133-.387-.176-.532-.125-.218.063-.445.305-.672.719-.242.449-.585 1.14-1.03 2.078ZM81.995 138.348a6.858 6.858 0 0 1-.922-.469c-.355-.25-.671-.476-.953-.672-1.023-.8-1.765-1.773-2.234-2.921-.469-1.145-.79-2.774-.953-4.891a51.206 51.206 0 0 1-.125-2.484c-.043-.957-.07-2-.078-3.125-.024-2.094.004-4.282.078-6.563.062-2.281.156-4.203.281-5.766l.094-1.078c0-.312-.012-.46-.031-.453-.063-.05-.532.133-1.407.547-.843.438-1.793.93-2.843 1.469-.563.305-1.137.601-1.72.89l-1.437.829c-.632.375-1.21.699-1.734.968-.55.293-.875.45-.969.47-.312.054-.812-.126-1.5-.532-.531-.344-.812-.61-.844-.797-.007-.05-.003-.086.016-.11.043-.062.336-.242.875-.546.555-.332 1.188-.707 1.906-1.125a83.153 83.153 0 0 1 9.328-4.61 75.684 75.684 0 0 1 9.329-3.265c.55-.157 1.039-.282 1.468-.375.395-.114.739-.207 1.032-.282l.546-.078c.426-.07.743-.086.954-.047.3.055.656.196 1.062.422.664.387 1.016.668 1.047.844.031.168-.262.297-.875.39-.574.094-1.434.31-2.578.641-1.149.313-2.336.664-3.563 1.047-.656.211-1.297.422-1.922.64-.625.231-1.21.454-1.75.673-.273.086-.699.25-1.28.5l-.235 2.03a69.77 69.77 0 0 0-.36 3.907c-.074 1.399-.14 2.82-.203 4.266a136.647 136.647 0 0 0-.03 7.781c.062 2.531.202 4.48.421 5.844.227 1.594.5 2.726.812 3.39.313.7.817 1.336 1.516 1.922.57.438.832.735.781.89-.011.063-.043.095-.093.095-.157.03-.461-.059-.907-.266ZM100.403 114.855c.688.324 1.098.664 1.235 1.016l.031.187c.07.45.082 1.418.031 2.906-.093 2.211-.12 4.2-.078 5.969.07 1.781.203 3.242.39 4.375.177 1.105.22 1.75.126 1.938-.043.085-.106.12-.188.109-.168.031-.406-.031-.718-.188-.637-.28-1.075-.539-1.313-.78-.21-.25-.387-.677-.531-1.282-.117-.32-.2-.754-.25-1.297a16.89 16.89 0 0 1-.172-1.484 11.58 11.58 0 0 0-.11-1.157c-.03-.343-.074-.535-.124-.578-.043-.039-.106-.015-.188.078a1.49 1.49 0 0 0-.203.313c-.2.45-.496.969-.89 1.562-.43.563-.75.934-.97 1.11-.273.199-.632.344-1.078.437-.437.074-.793.059-1.062-.047-.399-.113-.86-.347-1.39-.703-.555-.332-.907-.61-1.063-.828-.238-.32-.414-.758-.531-1.312a4.144 4.144 0 0 1-.125-.516 6.8 6.8 0 0 1-.094-1.281c-.04-1.176.094-2.367.406-3.578.336-1.207.793-2.055 1.375-2.547.457-.426.969-.61 1.531-.547.57.055 1.29.351 2.157.89.32.188.585.403.796.641.239.23.446.531.625.906.164.282.313.5.438.657.125.156.207.214.25.172.02-.04.05-.329.094-.86.03-.52.066-1.14.11-1.86.05-1 .108-1.687.17-2.062.071-.383.22-.593.438-.625l.032-.015a.723.723 0 0 1 .328.062c.133.055.304.125.515.219Zm-6.296 7.469a8.994 8.994 0 0 0-.172 2.312c-.012.762.054 1.133.203 1.11.05-.008.16-.102.328-.282.144-.176.297-.39.453-.64.156-.227.332-.567.531-1.016.207-.395.39-.754.547-1.078.207-.582.32-.977.344-1.188.008-.226-.055-.64-.188-1.234a8.942 8.942 0 0 0-.265-.875c-.094-.258-.153-.398-.172-.422l-.094-.062-.094.015c-.21.086-.464.453-.765 1.11-.281.656-.5 1.406-.656 2.25ZM107.676 138.391c-.242-.117-.464-.23-.671-.343a5.835 5.835 0 0 1-.47-.297c-.148-.117-.312-1.172-.5-3.172-.23-1.961-.46-4.692-.687-8.203-.062-.82-.156-2.094-.281-3.813l-.687-.25c-1.032-.457-1.586-.789-1.672-1l-.016-.031c-.031-.207.29-.516.953-.922.262-.133.5-.273.719-.422.23-.133.367-.219.422-.25.031-.031.054-.39.078-1.078.031-.695.047-1.531.047-2.5-.031-3.344.086-6.004.36-7.984.269-2 .702-3.461 1.296-4.39.383-.614.773-1.024 1.172-1.235.156-.07.328-.14.516-.203.27-.04.582-.024.937.046.5.086 1.07.274 1.719.563.625.324 1.066.625 1.328.906.238.281.43.719.578 1.313.05.156.094.308.125.453.063.406.07.812.031 1.219-.054.75-.203 1.183-.453 1.296-.262.118-.789-.023-1.578-.421-.219-.114-.543-.27-.969-.47l.094-1.265c.02-.758.02-1.21 0-1.36-.023-.124-.105-.175-.25-.155-.344.093-.71.75-1.094 1.968-.367 1.23-.605 2.618-.718 4.157-.043.48-.079 1.023-.11 1.625-.043.562-.062 1.14-.062 1.734-.043 1.125-.04 2.11.015 2.953.008.887.047 1.352.11 1.39.05.055.242.06.578.016.32 0 .676-.03 1.062-.093.719-.114 1.282-.157 1.688-.125.394.062.844.23 1.344.5.437.242.613.433.53.578-.105.125-.538.265-1.296.422a18 18 0 0 0-2.516.687c-.898.336-1.367.59-1.406.766-.055.156-.055.87 0 2.14.063 1.274.16 2.836.297 4.688.094 1.023.176 2.078.25 3.172.113 1.125.21 2.27.297 3.437.094 1.07.18 1.992.265 2.766.051.781.063 1.203.032 1.265-.024.083-.09.145-.203.188a.75.75 0 0 1-.188 0c-.23-.023-.57-.11-1.016-.266ZM119.465 136.488c-.242-.117-.465-.23-.672-.344a5.835 5.835 0 0 1-.469-.297c-.148-.117-.312-1.172-.5-3.172-.23-1.96-.46-4.691-.687-8.203-.063-.82-.156-2.093-.281-3.812-.137-.051-.367-.133-.688-.25-1.031-.457-1.586-.79-1.672-1l-.015-.031c-.032-.207.289-.516.953-.922.262-.133.5-.274.719-.422.23-.133.367-.219.421-.25.032-.031.055-.39.079-1.078.03-.696.046-1.532.046-2.5-.03-3.344.086-6.004.36-7.985.27-2 .703-3.46 1.297-4.39.383-.614.773-1.024 1.172-1.235.156-.07.328-.14.515-.203.27-.039.582-.023.938.047.5.086 1.07.273 1.718.563.625.324 1.067.625 1.329.906.238.281.43.719.578 1.312.05.157.093.309.125.453.062.407.07.813.031 1.22-.055.75-.203 1.183-.453 1.296-.262.117-.79-.023-1.578-.422-.219-.113-.543-.27-.969-.469.02-.27.05-.691.094-1.265.02-.758.02-1.211 0-1.36-.024-.125-.106-.175-.25-.156-.344.094-.711.75-1.094 1.969-.367 1.23-.605 2.617-.719 4.156-.043.48-.078 1.024-.11 1.625-.042.563-.062 1.14-.062 1.735-.043 1.125-.039 2.109.016 2.953.008.886.047 1.351.11 1.39.05.055.242.059.577.016.32 0 .676-.031 1.063-.094.719-.113 1.281-.156 1.687-.125.395.063.844.23 1.344.5.438.242.614.434.531.578-.105.125-.539.266-1.296.422a18 18 0 0 0-2.516.688c-.898.336-1.367.59-1.406.765-.055.157-.055.871 0 2.14.062 1.274.16 2.837.297 4.688.093 1.024.175 2.079.25 3.172.113 1.125.21 2.27.296 3.438.094 1.07.18 1.992.266 2.765.05.782.063 1.204.031 1.266-.023.082-.09.145-.203.188a.75.75 0 0 1-.187 0c-.23-.024-.57-.11-1.016-.266Zm0 0"/><g mask="url(#b)"><g clip-path="url(#c)" transform="translate(3 12)"><g clip-path="url(#d)"><g clip-path="url(#e)"><g clip-path="url(#f)"><g clip-path="url(#g)"><path d="M174.11 42.2c-3.462-13.587-9.497-23.684-17.93-30.013-7.446-5.585-16.45-7.886-26.04-6.648-9.058 1.168-18.136 5.516-25.55 12.242-7.27 6.594-12.512 14.957-15.2 24.239-4.953-8.297-12.148-15.06-20.847-19.586-8.883-4.625-18.762-6.528-27.824-5.356-9.586 1.235-17.711 5.746-23.5 13.04-5.422 6.839-8.614 15.82-9.477 26.683l-.097.863a.37.37 0 0 0 .023.176 80.067 80.067 0 0 0-.172 5.86c.094 13.464 4.61 24.519 14.215 34.788 8.602 9.203 20.562 16.961 33.238 25.18 15.89 10.309 33.906 21.988 49.348 39.105l.445.497a.355.355 0 0 0 .578-.075l.309-.593c10.594-20.477 25.05-36.348 37.808-50.352 10.165-11.16 19.766-21.703 25.758-32.793 6.68-12.371 8.243-24.21 4.914-37.258ZM95.3 32.21c.106-.237.22-.503.294-.655l1.433-1.082 1.426 1.203-3.18.597c.012-.02.02-.039.028-.062Zm-1.245 2.294-.028 1.695-1.054.406c.308-.625.722-1.414 1.082-2.101Zm-23.95-9.383-.402.43-2.195 1.137-3.711.105a.361.361 0 0 0-.328.246l-.457 1.457-3.16.516a.329.329 0 0 0-.168.074l-4.254 3.457-.684-.352.512-2.171 5.84-5.977 2.824-2.016a51.308 51.308 0 0 1 6.183 3.094Zm-1.382 4.02 1.054.43c.051.019.106.027.164.023l2.102-.18-.059.617-1.332.074a.345.345 0 0 0-.312.23l-.215.59-1.234.16-.454-1.62ZM40.926 18.699a42.398 42.398 0 0 1 10.437-.031l.301.039a47.743 47.743 0 0 1 6.977 1.457l-.907 1.18-3.632 4.574-1.793 1.145-1.364.917-2.027.082-.86-1.683 2.184-1.031a.326.326 0 0 0 .149-.133l2.238-3.59a.352.352 0 0 0-.11-.484l-2.359-1.5a.352.352 0 0 0-.45.058l-1.92 2.074-8.661 2.336a.353.353 0 0 0-.234.2l-2.055 4.668-1.567 4.226a.343.343 0 0 0 .04.324.349.349 0 0 0 .289.153l2.101.011a.364.364 0 0 0 .266-.117l4.922-5.46.312.304.106 1.488c.011.157.12.29.277.32l2.34.528.504.984-.89 3.297-.962 3.223-1.969 2.43-3.636.242a.342.342 0 0 0-.239.117l-2.586 2.867a.348.348 0 0 0 .012.484l1.113 1.122-.273.277-1.953.605-1.656-2.16a.35.35 0 0 0-.59.047l-1.899 3.508-2.129.605a.371.371 0 0 0-.18.118l-2.655 3.304-2.45 2.906-1.96 1.594-1.891-4.222-.024-.04-1.656-2.69a.354.354 0 0 0-.34-.169l-2.722.293-1.16-1.453a.37.37 0 0 0-.36-.125l-2.742.637c3.793-17.02 14.73-27.848 30.293-29.856ZM9.219 66.58c.11-.028.199-.106.242-.212l.883-2.191.812-.574.188.828-.79 1.566-1.242 1.918c-.035-.445-.066-.89-.093-1.336Zm.785 6.484.93.562.293 3.492c.003.02.003.04.007.059l.762 3.094a44.72 44.72 0 0 1-1.992-7.207Zm36.781 43.167-.082.094c-13.75-9.144-26.535-18.617-33.047-32.136l1.844 1.054c.082.047.18.059.27.031l1.246-.351a.35.35 0 0 0 .234-.211l.86-2.164.738-.145 1.304 4c.04.118.137.207.258.235l2.219.508 1.117 4.156c.02.082.07.156.14.203l1.11.758.547 2.3a.358.358 0 0 0 .312.27l2.11.191.719 1.7c.007.023.02.043.035.066l1.46 2.094.235 1.832a.363.363 0 0 0 .148.246l1.34.934.051 2.21c.004.125.07.239.18.301l3.777 2.11 2.438 1.992c.062.05.144.078.23.078l2.098-.035 2.437 2.07.594 1.426a.35.35 0 0 0 .371.215l1.738-.223.88 1.043Zm92.117-1.425.344-1.364 1.883-1.086c-.738.81-1.48 1.625-2.227 2.45Zm3.606-3.965 1.062-2.668.13-.024.238 1.122Zm2.71-2.98-.25-1.169a.362.362 0 0 0-.405-.273l-1.918.348a.35.35 0 0 0-.27.218l-1.477 3.715-2.863 1.653a.34.34 0 0 0-.168.218l-.652 2.594a.358.358 0 0 0 .039.27l.437.71c-10.984 12.16-23.453 26.622-32.972 44.668-15.406-16.804-33.184-28.332-48.883-38.515-2.582-1.676-5.25-3.402-7.832-5.11l.254-.285a.364.364 0 0 0 .09-.242l-.118-4.039a.368.368 0 0 0-.082-.219l-1.57-1.863a.35.35 0 0 0-.312-.121l-1.48.191-.356-.851a.327.327 0 0 0-.098-.133l-2.996-2.55a.365.365 0 0 0-.234-.083l-2.114.04-2.148-1.762c-.02-.012-.035-.024-.05-.036l-3.306-1.847-.047-2.133a.35.35 0 0 0-.152-.281l-1.402-.98-.207-1.602a.333.333 0 0 0-.059-.157l-1.539-2.191-.965-2.281a.364.364 0 0 0-.293-.219l-1.965-.176-.457-1.914a.337.337 0 0 0-.144-.21l-1.129-.77-1.188-4.426a.364.364 0 0 0-.265-.254l-2.258-.516-1.422-4.363a.359.359 0 0 0-.406-.238l-2.414.476a.349.349 0 0 0-.258.22l-.887 2.222-.191.054-1.645-.941-1.425-5.812-.34-4.008a.346.346 0 0 0-.168-.274l-1.906-1.148-.137-2.09 1.668-2.574c.004-.008.012-.02.015-.031l1.024-2.028a.358.358 0 0 0 .027-.238l-.676-2.992a.36.36 0 0 0-.218-.25.35.35 0 0 0-.332.043l-2.559 1.808c-.012.012-.027.02-.039.032 0-2.938.164-5.81.484-8.543l1.84-4.645 1.543-.36 1.102 1.38a.359.359 0 0 0 .312.132l2.63-.285 1.206 1.961L20.22 57.2l-.93 4.34a.354.354 0 0 0 .262.418l2.113.547a.373.373 0 0 0 .293-.055.368.368 0 0 0 .148-.261l.395-4.653 2.023-1.648a.265.265 0 0 0 .047-.047l2.563-3.031 2.433-3.02 2.247-.64a.348.348 0 0 0 .214-.172l1.258-2.329 1.04 1.36c.09.117.241.168.386.12l3.031-.937a.445.445 0 0 0 .149-.09l1.324-1.335a.353.353 0 0 0-.004-.5l-1.152-1.157 1.5-1.664 3.675-.242a.378.378 0 0 0 .254-.133l2.442-3.02a.367.367 0 0 0 .066-.12l1.035-3.47 1.016-3.76a.357.357 0 0 0-.027-.255l-.965-1.894a.37.37 0 0 0-.239-.188l-2.023-.453-.074-1.05a.352.352 0 0 0-.106-.231l-1.523-1.496a.347.347 0 0 0-.262-.102.345.345 0 0 0-.25.117l-5.156 5.715.855-2.304 1.809-4.102 8.437-2.277a.327.327 0 0 0 .168-.102l1.48-1.598.517.332-1.422 2.286-2.98 1.406a.368.368 0 0 0-.184.207.351.351 0 0 0 .02.273l1.765 3.465c.062.125.191.2.332.196l3.133-.133a.339.339 0 0 0 .18-.059l1.628-1.094 1.945-1.242a.41.41 0 0 0 .086-.078l3.766-4.742 1.277-1.66c.641.21 1.293.441 1.985.703l-2.078 1.48c-.016.012-.032.028-.047.043l-6.176 6.309a.36.36 0 0 0-.094.168l-.797 3.402c-.039.156.04.32.18.395l2.207 1.14a.35.35 0 0 0 .387-.039l4.613-3.75 3.578-.582a.362.362 0 0 0 .281-.246l.422-1.344 2.762-.082-.61.696a.348.348 0 0 0-.074.328l.903 3.238a.36.36 0 0 0 .386.258l2.985-.387a.348.348 0 0 0 .285-.23l.195-.528 1.567-.086a.352.352 0 0 0 .332-.32l.297-3.07a.348.348 0 0 0-.383-.387l-3.246.277-1.012-.41 1.516-.785a.298.298 0 0 0 .097-.07l.762-.813a51.407 51.407 0 0 1 11.16 9.547l.215.25a50.666 50.666 0 0 1 2.531 3.176l-1.925 1.098a.34.34 0 0 0-.106.09l-1.2 1.554.212-1.508a.357.357 0 0 0-.137-.328l-2.172-1.676-.832-4.91a.363.363 0 0 0-.234-.273.348.348 0 0 0-.356.074l-1.754 1.61-2.101.175a.351.351 0 0 0-.324.356l.015 3.52-2.816 1.304a.356.356 0 0 0-.207.351l.3 3.266a.353.353 0 0 0 .477.3l3.664-1.358-.316 1.605c-.035.18.07.352.242.406l1.059.34-.118.023a.353.353 0 0 0-.273.418l.469 2.258a.352.352 0 0 0 .27.274l1.491.324.164 2.578-5.82 1.223a.353.353 0 0 0-.277.297l-.41 2.953-.7 1.336a.345.345 0 0 0-.035.207l.5 3.898a.363.363 0 0 0 .149.246.343.343 0 0 0 .281.055l2.34-.52.25 1.27-3.524 3.394a.354.354 0 0 0-.109.258l.023 2.125-.8 1.75-2.875 1.809a.316.316 0 0 0-.106.097l-4.691 6.825a.368.368 0 0 0-.035.336l1.297 3.144-.028 3.32-1.12 2.883a.337.337 0 0 0-.013.215l.817 3.164a.328.328 0 0 0 .12.188L67.497 94l.777 2.297a.346.346 0 0 0 .122.168l6.894 5.207c.09.066.2.086.309.058l2.93-.793a.33.33 0 0 0 .128-.062l1.594-1.262.844-.11.55 1.067c.067.133.211.207.36.188l3.426-.442a.346.346 0 0 0 .246-.152l1.383-2.062 3.043-.5 2.668 1.644c.039.024.078.04.12.047l2.727.488a.349.349 0 0 0 .324-.105l.895-.95 1.035.739-.183 4.976a.318.318 0 0 0 .058.204l2.152 3.308c.032.05.079.094.133.121l2.504 1.313.899 2.515 1.41 3.086-.926 1.938-1.207 2.597a.315.315 0 0 0-.031.133l-.168 3.918a.355.355 0 0 0 .117.278l3.34 3.011.754 3.989c.011.062.039.117.078.164l2.441 2.855.68 3.274c.031.156.164.27.324.28l2.961.204a.34.34 0 0 0 .203-.047l2.153-1.25 3.167-.164a.344.344 0 0 0 .207-.082l4.614-3.785c.02-.016.039-.031.054-.051l3.332-4.16a.29.29 0 0 0 .063-.125l.484-1.695 2.762-2.723a.351.351 0 0 0 .102-.285l-.368-3.778 3.708-3.738 2.453-2.426c.07-.07.109-.164.105-.265l-.101-2.7.777-1.418c.039-.07.05-.152.035-.234l-.5-2.77a.345.345 0 0 0-.164-.242l-1.75-1.043-.43-2.527.875-3.129 2.899-6.008 3.558-5.476a.358.358 0 0 0 .051-.14l.691-4.579.329-3.344a.274.274 0 0 0-.004-.097l-.457-2.512a.354.354 0 0 0-.114-.2l-1.214-1.097a.355.355 0 0 0-.457-.016l-4.043 3.196-.7.035-.125-.586.086.035a.358.358 0 0 0 .407-.105l4.789-5.754a.334.334 0 0 0 .07-.145l.633-2.636 1.695-2.196a.373.373 0 0 0 .074-.21l.07-6.626a.367.367 0 0 0-.171-.308l-3.746-2.25c-.008-.004-.012-.008-.016-.008l.148.058c.055.024.118.032.176.024l2.735-.352a.347.347 0 0 0 .234-.136l1.383-1.79 3.062 1.985a.35.35 0 0 0 .239.055l1.144-.149 2.043 3.125 4.898 8.403c.055.09.145.152.25.167l1.934.32.012.544a.374.374 0 0 0 .09.226l1.793 2.012a.343.343 0 0 0 .296.117c.114 0 .211-.07.27-.168l1.582-2.629a.366.366 0 0 0 .012-.347l-1.63-3.164a.372.372 0 0 0-.234-.184.35.35 0 0 0-.289.063l-1.593 1.171-.098-1.199-.016-4.558a.304.304 0 0 0-.007-.063l-.997-5.586 3.18-4.62 2.563 1.69 3.43 4.77a.36.36 0 0 0 .429.121l2.195-.945 1.641 5.289 1.562 4.937c.016.051.047.098.083.137l.535.555c-4.036 13.793-14.227 25.797-27.13 40.015ZM79.228 40.812l-1.004-2.184c-.082-.176-.293-.254-.47-.176l-1.651.75a.45.45 0 0 0-.102.074l-.012-3 1.407-.117c.078 0 .152-.039.21-.09l.438-.402.543 3.203a.359.359 0 0 0 .133.219l1.992 1.539-.168 1.23-1.848 1.16-.976.547-.442-.144.325-1.668 1.414-.457a.355.355 0 0 0 .21-.484ZM75.762 39.8l-.528 1.347-2.109.782-.078-.871Zm83.328 29.945-.028-1.398.168-.121.68 1.32-.398.668Zm13.812-4.02-.441-1.394.64.531c-.062.297-.128.582-.199.864Zm.676-3.257-.578-2.88.914.442a46.83 46.83 0 0 1-.336 2.438Zm.594-6.653-.004.141c0 .094 0 .188-.004.285-.008.301-.016.602-.027.903a76.46 76.46 0 0 1-.075 1.238l-2.554-1.227a.355.355 0 0 0-.5.39l1.207 6.005-2.606-8.352a.349.349 0 0 0-.476-.222l-2.531 1.09-3-4.169a.295.295 0 0 0-.094-.09l-3.727-2.456a.354.354 0 0 0-.484.093l-4.121 5.992a.344.344 0 0 0-.055.262l1.063 5.969.02 4.52.132 1.601-4.563-7.816-2.472-3.785a.351.351 0 0 0-.344-.157l-1.453.188-3.621-2.344a.359.359 0 0 0-.473.082l-1.746 2.266-1.934.25-2.144-.868a.357.357 0 0 0-.356.055l-1.675 1.344-.875-.899a.399.399 0 0 0-.149-.093l-3.625-1.125a.37.37 0 0 0-.273.023.368.368 0 0 0-.172.211l-.527 1.766a.372.372 0 0 0 .046.3l1.122 1.668c.046.07.117.122.199.145l3.379.957.61 1.805a.352.352 0 0 0 .448.222l2.293-.773a.353.353 0 0 0 .149-.098l1.172-1.3 2.316 1.39-.059 5.54-1.605 2.081a.321.321 0 0 0-.063.133l-.629 2.613-4.054 4.875-1.485-.59-.664-2.464a.364.364 0 0 0-.191-.23l-1.305-.61-.468-1.871a.36.36 0 0 0-.168-.223l-2.25-1.273-1.645-1.371-.789-1.461a.329.329 0 0 0-.098-.11l-2.523-1.949-2.856-2.785a.363.363 0 0 0-.351-.086l-2.149.648a.368.368 0 0 0-.222.196.357.357 0 0 0 .008.297l1.062 2.203c.012.02.02.039.035.054l1.703 2.344c.012.02.032.04.047.055l4.078 3.691.282 2.192c.02.14.117.253.25.296l1.285.383 5.672 4.594c.047.04.101.066.16.074l1.246.215.297 1.414a.348.348 0 0 0 .363.281l2.106-.105a.353.353 0 0 0 .199-.078l3.55-2.805.165.149.355 1.945-.309 3.137-.644 4.285-3.445 5.3a.344.344 0 0 0-.024.04l-2.976 6.16a.344.344 0 0 0-.02.058l-.988 3.524a.302.302 0 0 0-.008.156l.566 3.332a.354.354 0 0 0 .168.246l1.754 1.043.324 1.82-.73 1.34a.364.364 0 0 0-.043.184l.094 2.504-2.082 2.058-4.11 4.141a.356.356 0 0 0-.101.285l.367 3.77-2.582 2.543a.35.35 0 0 0-.09.156l-.504 1.77-3.07 3.843-4.246 3.485-3.067.16a.294.294 0 0 0-.16.047l-2.086 1.21-1.691-.117-.559-2.687a.33.33 0 0 0-.078-.156l-2.433-2.844-.77-4.074a.372.372 0 0 0-.11-.2l-3.222-2.902.133-3.117 1.101-2.375 1.164-2.434a.353.353 0 0 0 .004-.3l-1.617-3.532-1.035-2.894a.345.345 0 0 0-.168-.196l-2.64-1.382-1.774-2.73.191-5.24a.347.347 0 0 0-.148-.3l-2.402-1.719a.357.357 0 0 0-.465.043l-1.172 1.242-1.867-.335-2.852-1.758a.327.327 0 0 0-.242-.047l-3.996.648a.366.366 0 0 0-.238.153l-1.368 2.046-2.054.262-.551-1.062a.355.355 0 0 0-.36-.188l-2.003.258a.336.336 0 0 0-.172.07l-1.664 1.317-2.13.574-6.136-4.629-.77-2.281a.328.328 0 0 0-.113-.16l-3.37-2.711-.622-2.403 1.063-2.726a.338.338 0 0 0 .023-.125l.031-3.781a.347.347 0 0 0-.027-.141l-1.14-2.766 4.183-6.09 2.969-1.863a.336.336 0 0 0 .132-.152l1.067-2.32a.389.389 0 0 0 .031-.149l-.023-1.879 3.011-2.898 2.934-.38a.401.401 0 0 0 .098-.027l2.117-.914c.023-.007.039-.02.058-.03l1.711-1.145 2.223-.051c.05 0 .098-.012.14-.031l1.864-.86 4.422-.683.508.453.484 2.761c.031.172.18.293.352.293l4.906-.02.812 1.298a.357.357 0 0 0 .243.16l4.843.809a.34.34 0 0 0 .278-.07.352.352 0 0 0 .136-.25l.27-3.598 1.613-.547 2.984 1.37a.333.333 0 0 0 .153.032l4.601-.035a.35.35 0 0 0 .352-.34l.047-1.25 3.453-.445h.004a.36.36 0 0 0 .308-.399c-.003-.023-.007-.05-.02-.074l-1.081-7.246a.36.36 0 0 0-.25-.285.35.35 0 0 0-.367.105l-1.965 2.242-1.234-.953a.35.35 0 0 0-.282-.066l-2.148.406-2.215-.21-.957-2.169a.35.35 0 0 0 .262-.07l1.148-.887 1.508-.414a.361.361 0 0 0 .258-.293l.172-1.234 2.035-.313.851.715c.07.055.157.086.246.078l1.36-.07a.354.354 0 0 0 .328-.27l.172-.703 1.125-.144a.374.374 0 0 0 .242-.145.358.358 0 0 0 .059-.273l-.34-1.797a.352.352 0 0 0-.211-.262l-2.688-1.117a.393.393 0 0 0-.164-.027l-.949.074-.832-1.559a.355.355 0 0 0-.16-.152l-.899-.43a.36.36 0 0 0-.464.153l-.508.953a.358.358 0 0 0-.035.09l-.23 1.047-.208-.29a.348.348 0 0 0-.273-.148l-.97-.031-1.546-.184a.364.364 0 0 0-.266.078.365.365 0 0 0-.129.246l-.109 1.375-.394.266a.36.36 0 0 0-.157.32l.227 3.04c.012.144.11.269.25.312l.629.195.21.934a.337.337 0 0 0-.19-.09l-3.118-.402a.339.339 0 0 0-.277.082.348.348 0 0 0-.121.265l-.012 2.512c0 .086.031.172.09.238l1.445 1.614-.101.472-.805-.363-2.25-1.348-.875-3.39a.361.361 0 0 0-.125-.196l-1.902-1.465c-.024-.02-.047-.03-.07-.042l-5.31-2.434a.357.357 0 0 0-.44.125l-1.868 2.789a.35.35 0 0 0-.05.285c.027.098.093.18.183.227l5.812 2.996.586 1.082-.21 1.594-.575 1.894-1.933-.281-.036-.258 1.375-.812a.366.366 0 0 0 .176-.29l.094-1.867a.346.346 0 0 0-.18-.324l-4.261-2.387-1.239-1.535a.363.363 0 0 0-.324-.129l-1.855.242a.352.352 0 0 0-.215.114l-1.344 1.468-3.129.532a.355.355 0 0 0-.293.343l-.043 1.614-2.183 1.777a.338.338 0 0 0-.114.164l-1.09 3.281-2.984 1.106a.355.355 0 0 0-.227.289l-.093.781-.493.168-.269-1.379a.365.365 0 0 0-.156-.23.343.343 0 0 0-.27-.047l-2.258.504-.285-2.23.617-1.184a.297.297 0 0 0 .04-.117l.324-2.325 6.011-1.261a.352.352 0 0 0 .282-.368l-.29-4.511a.354.354 0 0 0-.277-.324l-1.617-.352-.066-.328.894-.188a.277.277 0 0 0 .121-.05l3.004-1.946a.428.428 0 0 0 .086-.082l2.082-2.703 1.863-1.055a50.135 50.135 0 0 1 2.68 4.352l.567 1.043a.356.356 0 0 0 .656-.086l.285-1.152c.52-2.094.926-3.493 1.777-5.637l3.266-1.023a.351.351 0 0 0 .25-.32l.18-3.442 4.136-.707a.34.34 0 0 0 .278-.242l.34-1.079a.357.357 0 0 0-.075-.343l-2.738-3.02c.105-.351.375-1.176.863-1.848l1.617-2.113a51.092 51.092 0 0 1 3.38-3.77l.058-.058c.113-.117.23-.23.344-.348.215-.21.433-.418.66-.632.34-.325.683-.645 1.031-.957l.192-.176a49.924 49.924 0 0 1 7.082-5.27l.109-.07c.39-.234.781-.465 1.172-.688l.086-.05c.222-.125.441-.25.668-.375l.43-.23.105-.055c4.71-2.493 9.652-4.086 14.68-4.735 20.093-2.59 35.859 10.66 42.18 35.445.206.82.402 1.668.577 2.512l-1.648 1.63a.359.359 0 0 0-.074.401l1.453 3.172a.35.35 0 0 0 .176.176l.964.434c.149 1.652.215 3.297.192 4.886Zm-34.953 2.121a.342.342 0 0 0-.356.102l-1.625 1.8-.867.294-.426-1.27a.366.366 0 0 0-.074-.125l1.785-1.433Zm-4.512.415-2.562-.727-.563-.836.02-.066 2.18.675Zm-8.312 11.699-4.29-3.867-1.574-2.157-.426-.879.133-.043 2.383 2.325c.008.007.02.02.031.027l2.399 1.852.777 1.441c.024.043.05.078.086.105l1.879 1.563a.571.571 0 0 0 .05.035l1.923 1.098.484 1.926a.36.36 0 0 0 .191.234l1.317.617.496 1.84-4.621-3.746a.358.358 0 0 0-.121-.063l-.762-.226-.242-1.863a.362.362 0 0 0-.113-.22ZM93.77 57.492l3.851.559a.352.352 0 0 0 .39-.246l.891-2.942.012-.054.285-2.106a.343.343 0 0 0-.039-.215l-.945-1.75a.387.387 0 0 0-.149-.148l-4.953-2.55.559-.833 4.219 1.926 1.53 1.18.895 3.464a.33.33 0 0 0 .16.215l2.68 1.61c.012.007.024.011.035.02l2.243 1.01a.361.361 0 0 0 .304-.003.368.368 0 0 0 .188-.242l.547-2.512a.362.362 0 0 0-.082-.313l-1.547-1.726.004-.695 1.101.144 1.332 3.012a.357.357 0 0 0 .293.207l3.078.297c.035 0 .067 0 .102-.008l1.785-.336 1.695 1.309c.149.117.36.093.485-.047l1.004-1.149.535 3.559-3.246.418a.352.352 0 0 0-.309.34l-.043 1.117-3.195.023-3.176-1.457a.346.346 0 0 0-.258-.011l-2.812.949a.35.35 0 0 0-.239.308l-.234 3.082-3.023-.507-.883-1.403a.356.356 0 0 0-.3-.164l-4.563.016-.383-2.184a.378.378 0 0 0-.114-.203l-1.246-1.098a.377.377 0 0 0-.289-.085l-5.082.785a.604.604 0 0 0-.09.027l-1.851.836-2.324.055a.354.354 0 0 0-.188.058l-1.879 1.266-1.84.808-.316.04v-.016l.098-.805 2.836-1.05a.351.351 0 0 0 .21-.223l1.16-3.492 2.344-1.907a.36.36 0 0 0 .133-.265l.028-1.184 2.562-.433a.348.348 0 0 0 .203-.11l1.324-1.453.762-.098.965 1.196a.36.36 0 0 0 .102.086l3.816 2.132-.027.485-1.5.887a.348.348 0 0 0-.172.351l.25 1.938c.02.16.144.285.3.308Zm13.636-9.937-.113-1.532.297-.199a.36.36 0 0 0 .156-.265l.059-.715.37.043.446.015.57.793c.102.14.29.188.446.11l1.261-.625a.335.335 0 0 0 .196-.274l.129-1.008.656 1.235c.066.12.2.195.34.183l1.441-.113 1.672.695-.543.07a.359.359 0 0 0-.3.27l-.153.637-.914-.758a.373.373 0 0 0-.281-.074l-3.446.523a.356.356 0 0 0-.3.301l-.184 1.34-.938.262-.113-.496a.357.357 0 0 0-.242-.262Zm65.735-.293.316-.313c.086.504.164 1.012.234 1.516ZM26.625 73.625l-.707-1.727a.35.35 0 0 0-.316-.218l-4.391-.125a.355.355 0 0 0-.34.23l-1.09 2.93a.354.354 0 0 0 .282.472l1.902.29 1.629.804.664 2.211-.89 3.586a.356.356 0 0 0 .112.356l.672.582c.078.066.18.093.278.082a.375.375 0 0 0 .21-.106l1.407-1.476c.008-.008.015-.016.023-.028l2.457-3.16a.367.367 0 0 0 .043-.363Zm-1.063 6.05.282-1.128a.384.384 0 0 0-.008-.188l-.906-3.02a.346.346 0 0 0-.184-.214l-2.2-1.09A.49.49 0 0 0 22.45 74l-.703-.117.25-.68 2.758-.058.45 1.09 1.714 3.831Zm-5.902-8.003.938-2.067a.337.337 0 0 0 .02-.238l-1.298-4.86a.364.364 0 0 0-.175-.218l-4.86-2.652a.354.354 0 0 0-.406.043.357.357 0 0 0-.094.394l1.563 3.973 1.398 5.105c.035.125.14.227.27.254l2.25.465c.039.008.082.008.117.004a.35.35 0 0 0 .277-.203Zm-.93-1.414-.636-.059-1.262-4.605-.012-.035-.363-.922 1.496.758 1.106 4.144Zm108.036-24.574-2.22-1.434.083-.074a.365.365 0 0 0 .094-.395l-.602-1.535a.356.356 0 0 0-.277-.219l-2.832-.449-.625-.68-.133-.656-.05-1.836a.358.358 0 0 0-.45-.332l-2.156.598a.368.368 0 0 0-.254.273l-.235 1.203-.601.407a.36.36 0 0 0-.149.375l.434 1.875c.031.136.14.242.277.27l.938.183 2.719 2.043.562 1.355c.031.07.078.125.14.164l2.704 1.688c.07.043.152.058.23.05l.012-.003 2.59-.422a.357.357 0 0 0 .234-.145.366.366 0 0 0 .059-.27l-.336-1.804a.355.355 0 0 0-.156-.23Zm-8.047-3.832a.397.397 0 0 0-.145-.063l-.445-.086-.074-.32.332-.223a.377.377 0 0 0 .148-.226l.164-.84.008.293c0 .023.004.043.008.062l.219 1.082a.346.346 0 0 0 .086.168l1.128 1.227Zm5.851 5.101-1.996-1.242-.543-1.309a.356.356 0 0 0-.117-.144l-1.648-1.242c.03.015.062.023.093.03l2.567.403.054.133-.62.566a.362.362 0 0 0-.118.293c.012.11.07.207.16.266l3.09 2 .02.094Zm0 0"/></g></g></g></g></g></g></svg>