<svg xmlns="http://www.w3.org/2000/svg" xmlns:xlink="http://www.w3.org/1999/xlink" width="50" zoomAndPan="magnify" viewBox="0 0 37.5 37.499999" height="50" preserveAspectRatio="xMidYMid meet" version="1.2"><defs><clipPath id="1df348c672"><path d="M 0 0 L 37.007812 0 L 37.007812 37.007812 L 0 37.007812 Z M 0 0 "/></clipPath><clipPath id="0994f30a60"><path d="M 2 2 L 35 2 L 35 34 L 2 34 Z M 2 2 "/></clipPath><clipPath id="a755515089"><path d="M 0.742188 6.167969 L 33.773438 1.90625 L 37.5625 31.265625 L 4.527344 35.527344 Z M 0.742188 6.167969 "/></clipPath><clipPath id="aa11e78945"><path d="M 0.742188 6.167969 L 33.773438 1.90625 L 37.5625 31.265625 L 4.527344 35.527344 Z M 0.742188 6.167969 "/></clipPath><clipPath id="359442fef9"><path d="M 0.742188 6.167969 L 33.773438 1.90625 L 37.5625 31.265625 L 4.527344 35.527344 Z M 0.742188 6.167969 "/></clipPath></defs><g id="9b110b5039"><g clip-rule="nonzero" clip-path="url(#1df348c672)"><path style=" stroke:none;fill-rule:nonzero;fill:#ffffff;fill-opacity:1;" d="M 0 0 L 37.007812 0 L 37.007812 37.007812 L 0 37.007812 Z M 0 0 "/><path style=" stroke:none;fill-rule:nonzero;fill:#ccccff;fill-opacity:1;" d="M 0 0 L 37.007812 0 L 37.007812 37.007812 L 0 37.007812 Z M 0 0 "/></g><g clip-rule="nonzero" clip-path="url(#0994f30a60)"><g clip-rule="nonzero" clip-path="url(#a755515089)"><g clip-rule="nonzero" clip-path="url(#aa11e78945)"><g clip-rule="nonzero" clip-path="url(#359442fef9)"><path style=" stroke:none;fill-rule:nonzero;fill:#000000;fill-opacity:1;" d="M 34.488281 9.988281 C 33.816406 7.363281 32.644531 5.417969 31.007812 4.195312 C 29.5625 3.117188 27.8125 2.675781 25.949219 2.917969 C 24.1875 3.144531 22.421875 3.984375 20.976562 5.285156 C 19.5625 6.558594 18.542969 8.175781 18.019531 9.96875 C 17.058594 8.367188 15.660156 7.0625 13.96875 6.1875 C 12.246094 5.296875 10.324219 4.933594 8.5625 5.160156 C 6.699219 5.398438 5.117188 6.273438 3.992188 7.683594 C 2.9375 9.003906 2.316406 10.738281 2.144531 12.835938 L 2.125 13.003906 C 2.125 13.015625 2.128906 13.027344 2.132812 13.035156 C 2.105469 13.417969 2.09375 13.796875 2.097656 14.167969 C 2.113281 16.765625 2.988281 18.902344 4.855469 20.882812 C 6.523438 22.65625 8.847656 24.152344 11.3125 25.738281 C 14.398438 27.726562 17.898438 29.980469 20.898438 33.28125 L 20.984375 33.378906 C 21 33.394531 21.019531 33.402344 21.042969 33.398438 C 21.066406 33.394531 21.085938 33.382812 21.097656 33.363281 L 21.15625 33.246094 C 23.21875 29.292969 26.03125 26.226562 28.511719 23.519531 C 30.492188 21.363281 32.359375 19.324219 33.527344 17.183594 C 34.828125 14.792969 35.132812 12.507812 34.488281 9.988281 Z M 19.171875 8.074219 C 19.191406 8.027344 19.214844 7.976562 19.226562 7.945312 L 19.507812 7.738281 L 19.785156 7.96875 L 19.164062 8.085938 C 19.167969 8.082031 19.167969 8.078125 19.171875 8.074219 Z M 18.929688 8.515625 L 18.921875 8.84375 L 18.714844 8.921875 C 18.777344 8.800781 18.859375 8.648438 18.929688 8.515625 Z M 14.273438 6.707031 L 14.195312 6.789062 L 13.769531 7.011719 L 13.046875 7.03125 C 13.019531 7.03125 12.992188 7.050781 12.984375 7.078125 L 12.894531 7.359375 L 12.28125 7.460938 C 12.269531 7.460938 12.257812 7.46875 12.246094 7.476562 L 11.421875 8.144531 L 11.289062 8.074219 L 11.386719 7.65625 L 12.523438 6.5 L 13.070312 6.113281 C 13.480469 6.28125 13.886719 6.480469 14.273438 6.707031 Z M 14.003906 7.484375 L 14.210938 7.566406 C 14.21875 7.570312 14.230469 7.574219 14.242188 7.570312 L 14.648438 7.535156 L 14.636719 7.65625 L 14.378906 7.667969 C 14.351562 7.671875 14.328125 7.6875 14.320312 7.714844 L 14.277344 7.828125 L 14.035156 7.859375 L 13.949219 7.546875 Z M 8.601562 5.472656 C 9.265625 5.386719 9.949219 5.382812 10.632812 5.464844 L 10.691406 5.472656 C 10.757812 5.480469 10.824219 5.492188 10.890625 5.5 C 11.277344 5.558594 11.667969 5.644531 12.046875 5.753906 L 11.871094 5.980469 L 11.164062 6.863281 L 10.8125 7.085938 L 10.550781 7.261719 L 10.15625 7.28125 L 9.988281 6.953125 L 10.414062 6.753906 C 10.425781 6.75 10.433594 6.742188 10.441406 6.730469 L 10.878906 6.035156 C 10.898438 6.003906 10.886719 5.960938 10.855469 5.941406 L 10.398438 5.652344 C 10.371094 5.636719 10.332031 5.640625 10.3125 5.664062 L 9.9375 6.066406 L 8.253906 6.519531 C 8.230469 6.523438 8.214844 6.539062 8.207031 6.554688 L 7.808594 7.457031 L 7.5 8.273438 C 7.492188 8.296875 7.496094 8.320312 7.507812 8.335938 C 7.523438 8.355469 7.542969 8.367188 7.566406 8.367188 L 7.972656 8.367188 C 7.992188 8.367188 8.011719 8.359375 8.023438 8.34375 L 8.984375 7.289062 L 9.042969 7.347656 L 9.0625 7.636719 C 9.066406 7.667969 9.089844 7.691406 9.117188 7.699219 L 9.574219 7.800781 L 9.671875 7.988281 L 9.496094 8.625 L 9.308594 9.25 L 8.925781 9.71875 L 8.21875 9.765625 C 8.203125 9.765625 8.183594 9.773438 8.171875 9.789062 L 7.667969 10.34375 C 7.644531 10.371094 7.644531 10.410156 7.671875 10.4375 L 7.886719 10.652344 L 7.835938 10.707031 L 7.457031 10.824219 L 7.132812 10.40625 C 7.121094 10.386719 7.097656 10.378906 7.074219 10.378906 C 7.050781 10.382812 7.03125 10.394531 7.019531 10.414062 L 6.648438 11.09375 L 6.234375 11.210938 C 6.222656 11.214844 6.210938 11.222656 6.199219 11.234375 L 5.683594 11.871094 L 5.207031 12.433594 L 4.824219 12.742188 L 4.457031 11.925781 C 4.457031 11.925781 4.457031 11.921875 4.453125 11.917969 L 4.132812 11.398438 C 4.117188 11.375 4.09375 11.363281 4.066406 11.367188 L 3.539062 11.421875 L 3.3125 11.144531 C 3.296875 11.121094 3.269531 11.113281 3.242188 11.121094 L 2.710938 11.242188 C 3.449219 7.957031 5.578125 5.863281 8.601562 5.472656 Z M 2.429688 14.722656 C 2.453125 14.71875 2.46875 14.703125 2.476562 14.683594 L 2.652344 14.257812 L 2.808594 14.148438 L 2.84375 14.308594 L 2.691406 14.609375 L 2.449219 14.980469 C 2.441406 14.894531 2.4375 14.808594 2.429688 14.722656 Z M 2.582031 15.976562 L 2.761719 16.082031 L 2.820312 16.757812 C 2.820312 16.761719 2.820312 16.765625 2.820312 16.769531 L 2.96875 17.367188 C 2.804688 16.925781 2.675781 16.460938 2.582031 15.976562 Z M 9.726562 24.304688 L 9.710938 24.320312 C 7.039062 22.558594 4.554688 20.730469 3.292969 18.121094 L 3.648438 18.324219 C 3.664062 18.335938 3.683594 18.335938 3.703125 18.332031 L 3.945312 18.265625 C 3.964844 18.257812 3.980469 18.242188 3.988281 18.222656 L 4.15625 17.804688 L 4.300781 17.777344 L 4.554688 18.550781 C 4.558594 18.570312 4.578125 18.589844 4.601562 18.59375 L 5.035156 18.691406 L 5.25 19.496094 C 5.253906 19.511719 5.265625 19.523438 5.277344 19.535156 L 5.492188 19.679688 L 5.601562 20.125 C 5.605469 20.152344 5.632812 20.171875 5.660156 20.175781 L 6.070312 20.210938 L 6.210938 20.539062 C 6.210938 20.542969 6.214844 20.550781 6.214844 20.554688 L 6.5 20.957031 L 6.546875 21.3125 C 6.546875 21.332031 6.558594 21.347656 6.574219 21.359375 L 6.835938 21.539062 L 6.84375 21.964844 C 6.84375 21.988281 6.859375 22.011719 6.878906 22.023438 L 7.613281 22.429688 L 8.085938 22.8125 C 8.097656 22.824219 8.113281 22.828125 8.132812 22.828125 L 8.539062 22.820312 L 9.011719 23.222656 L 9.128906 23.496094 C 9.140625 23.523438 9.167969 23.542969 9.199219 23.539062 L 9.539062 23.496094 L 9.707031 23.695312 Z M 27.632812 24.011719 L 27.699219 23.75 L 28.066406 23.539062 C 27.921875 23.695312 27.777344 23.855469 27.632812 24.011719 Z M 28.332031 23.246094 L 28.539062 22.730469 L 28.566406 22.726562 L 28.613281 22.945312 Z M 28.859375 22.671875 L 28.8125 22.445312 C 28.804688 22.410156 28.769531 22.386719 28.734375 22.394531 L 28.359375 22.460938 C 28.335938 22.464844 28.316406 22.480469 28.308594 22.503906 L 28.019531 23.21875 L 27.464844 23.539062 C 27.449219 23.546875 27.4375 23.5625 27.429688 23.582031 L 27.304688 24.082031 C 27.300781 24.101562 27.300781 24.121094 27.3125 24.136719 L 27.394531 24.273438 C 25.257812 26.621094 22.832031 29.417969 20.980469 32.902344 C 17.988281 29.660156 14.535156 27.4375 11.484375 25.472656 C 10.980469 25.152344 10.464844 24.816406 9.960938 24.488281 L 10.011719 24.433594 C 10.023438 24.421875 10.027344 24.402344 10.027344 24.386719 L 10.007812 23.605469 C 10.007812 23.589844 10 23.578125 9.992188 23.566406 L 9.6875 23.207031 C 9.671875 23.1875 9.648438 23.179688 9.625 23.183594 L 9.335938 23.21875 L 9.269531 23.054688 C 9.265625 23.046875 9.257812 23.035156 9.25 23.027344 L 8.667969 22.539062 C 8.65625 22.527344 8.636719 22.519531 8.621094 22.519531 L 8.210938 22.527344 L 7.792969 22.191406 C 7.789062 22.1875 7.789062 22.183594 7.785156 22.183594 L 7.140625 21.824219 L 7.132812 21.414062 C 7.132812 21.394531 7.121094 21.371094 7.101562 21.359375 L 6.832031 21.171875 L 6.792969 20.863281 C 6.789062 20.851562 6.785156 20.839844 6.78125 20.832031 L 6.480469 20.410156 L 6.292969 19.96875 C 6.285156 19.945312 6.261719 19.929688 6.238281 19.925781 L 5.855469 19.894531 L 5.765625 19.523438 C 5.761719 19.507812 5.753906 19.492188 5.738281 19.484375 L 5.519531 19.335938 L 5.289062 18.480469 C 5.28125 18.457031 5.261719 18.4375 5.238281 18.429688 L 4.800781 18.332031 L 4.523438 17.488281 C 4.511719 17.457031 4.480469 17.4375 4.445312 17.445312 L 3.976562 17.535156 C 3.953125 17.539062 3.933594 17.554688 3.925781 17.578125 L 3.753906 18.007812 L 3.714844 18.019531 L 3.394531 17.835938 L 3.117188 16.714844 L 3.054688 15.941406 C 3.050781 15.917969 3.039062 15.898438 3.019531 15.886719 L 2.652344 15.667969 L 2.625 15.261719 L 2.949219 14.765625 C 2.949219 14.765625 2.953125 14.761719 2.953125 14.757812 L 3.152344 14.367188 C 3.160156 14.355469 3.160156 14.335938 3.15625 14.324219 L 3.027344 13.746094 C 3.019531 13.722656 3.003906 13.703125 2.984375 13.695312 C 2.960938 13.6875 2.9375 13.691406 2.917969 13.703125 L 2.421875 14.054688 C 2.417969 14.054688 2.417969 14.058594 2.414062 14.058594 C 2.414062 13.492188 2.445312 12.9375 2.507812 12.410156 L 2.867188 11.511719 L 3.167969 11.445312 L 3.382812 11.710938 C 3.394531 11.726562 3.417969 11.738281 3.441406 11.734375 L 3.953125 11.679688 L 4.1875 12.058594 L 4.570312 12.910156 L 4.390625 13.75 C 4.382812 13.785156 4.40625 13.820312 4.441406 13.828125 L 4.851562 13.933594 C 4.871094 13.9375 4.890625 13.933594 4.90625 13.921875 C 4.925781 13.910156 4.933594 13.894531 4.9375 13.875 L 5.015625 12.972656 L 5.40625 12.65625 C 5.410156 12.652344 5.414062 12.652344 5.417969 12.648438 L 5.917969 12.0625 L 6.390625 11.476562 L 6.824219 11.355469 C 6.84375 11.347656 6.859375 11.335938 6.867188 11.320312 L 7.113281 10.871094 L 7.3125 11.132812 C 7.332031 11.15625 7.363281 11.164062 7.390625 11.15625 L 7.980469 10.976562 C 7.988281 10.972656 8 10.964844 8.007812 10.957031 L 8.265625 10.699219 C 8.292969 10.671875 8.292969 10.628906 8.265625 10.601562 L 8.042969 10.378906 L 8.332031 10.058594 L 9.046875 10.011719 C 9.066406 10.007812 9.085938 10 9.097656 9.984375 L 9.574219 9.402344 C 9.578125 9.394531 9.582031 9.386719 9.585938 9.378906 L 9.785156 8.707031 L 9.984375 7.980469 C 9.988281 7.964844 9.988281 7.949219 9.980469 7.933594 L 9.792969 7.566406 C 9.78125 7.546875 9.765625 7.535156 9.746094 7.53125 L 9.351562 7.445312 L 9.339844 7.242188 C 9.335938 7.222656 9.332031 7.207031 9.316406 7.195312 L 9.023438 6.90625 C 9.007812 6.894531 8.992188 6.886719 8.972656 6.886719 C 8.953125 6.890625 8.933594 6.898438 8.921875 6.910156 L 7.917969 8.015625 L 8.085938 7.570312 L 8.4375 6.777344 L 10.078125 6.335938 C 10.089844 6.332031 10.101562 6.328125 10.113281 6.316406 L 10.398438 6.007812 L 10.5 6.070312 L 10.222656 6.511719 L 9.644531 6.785156 C 9.625 6.792969 9.613281 6.808594 9.609375 6.824219 C 9.601562 6.84375 9.601562 6.863281 9.613281 6.878906 L 9.953125 7.546875 C 9.964844 7.570312 9.992188 7.585938 10.019531 7.585938 L 10.628906 7.558594 C 10.640625 7.558594 10.652344 7.554688 10.664062 7.546875 L 10.980469 7.335938 L 11.359375 7.097656 C 11.363281 7.089844 11.371094 7.085938 11.375 7.082031 L 12.105469 6.164062 L 12.355469 5.84375 C 12.480469 5.882812 12.605469 5.929688 12.742188 5.980469 L 12.335938 6.265625 C 12.335938 6.269531 12.332031 6.269531 12.328125 6.273438 L 11.125 7.492188 C 11.117188 7.5 11.109375 7.511719 11.109375 7.523438 L 10.953125 8.183594 C 10.945312 8.210938 10.960938 8.246094 10.988281 8.257812 L 11.417969 8.480469 C 11.441406 8.492188 11.46875 8.488281 11.492188 8.472656 L 12.390625 7.746094 L 13.085938 7.632812 C 13.109375 7.628906 13.132812 7.609375 13.140625 7.585938 L 13.222656 7.324219 L 13.757812 7.308594 L 13.640625 7.445312 C 13.625 7.460938 13.617188 7.484375 13.625 7.507812 L 13.800781 8.132812 C 13.808594 8.164062 13.84375 8.1875 13.875 8.183594 L 14.457031 8.105469 C 14.480469 8.105469 14.503906 8.085938 14.511719 8.0625 L 14.550781 7.960938 L 14.855469 7.945312 C 14.886719 7.941406 14.914062 7.914062 14.917969 7.882812 L 14.976562 7.289062 C 14.980469 7.269531 14.972656 7.25 14.957031 7.234375 C 14.941406 7.21875 14.921875 7.210938 14.902344 7.214844 L 14.269531 7.269531 L 14.074219 7.1875 L 14.371094 7.039062 C 14.375 7.035156 14.382812 7.027344 14.386719 7.023438 L 14.535156 6.867188 C 15.347656 7.375 16.074219 7.996094 16.703125 8.707031 L 16.746094 8.757812 C 16.917969 8.953125 17.082031 9.15625 17.238281 9.371094 L 16.863281 9.582031 C 16.855469 9.585938 16.847656 9.59375 16.84375 9.597656 L 16.609375 9.898438 L 16.648438 9.609375 C 16.652344 9.585938 16.644531 9.558594 16.625 9.542969 L 16.203125 9.222656 L 16.039062 8.273438 C 16.035156 8.25 16.019531 8.230469 15.996094 8.222656 C 15.972656 8.210938 15.945312 8.21875 15.925781 8.234375 L 15.585938 8.546875 L 15.175781 8.582031 C 15.140625 8.582031 15.113281 8.613281 15.113281 8.648438 L 15.117188 9.328125 L 14.566406 9.582031 C 14.542969 9.59375 14.527344 9.621094 14.527344 9.648438 L 14.585938 10.28125 C 14.585938 10.300781 14.597656 10.320312 14.617188 10.332031 C 14.636719 10.34375 14.65625 10.34375 14.679688 10.339844 L 15.390625 10.074219 L 15.328125 10.386719 C 15.324219 10.417969 15.34375 10.453125 15.375 10.464844 L 15.582031 10.527344 L 15.558594 10.53125 C 15.523438 10.539062 15.5 10.578125 15.503906 10.613281 L 15.597656 11.050781 C 15.601562 11.074219 15.621094 11.097656 15.648438 11.101562 L 15.9375 11.164062 L 15.972656 11.664062 L 14.839844 11.898438 C 14.808594 11.90625 14.789062 11.929688 14.785156 11.957031 L 14.703125 12.527344 L 14.570312 12.785156 C 14.5625 12.796875 14.558594 12.8125 14.5625 12.824219 L 14.660156 13.578125 C 14.660156 13.597656 14.671875 13.613281 14.6875 13.625 C 14.703125 13.636719 14.722656 13.640625 14.742188 13.636719 L 15.195312 13.535156 L 15.246094 13.78125 L 14.558594 14.4375 C 14.546875 14.449219 14.539062 14.46875 14.539062 14.488281 L 14.542969 14.898438 L 14.386719 15.234375 L 13.828125 15.585938 C 13.820312 15.589844 13.8125 15.597656 13.808594 15.601562 L 12.894531 16.921875 C 12.878906 16.941406 12.878906 16.964844 12.886719 16.988281 L 13.136719 17.59375 L 13.132812 18.234375 L 12.914062 18.792969 C 12.910156 18.804688 12.90625 18.820312 12.910156 18.832031 L 13.070312 19.445312 C 13.074219 19.457031 13.082031 19.46875 13.09375 19.480469 L 13.753906 20.007812 L 13.90625 20.453125 C 13.910156 20.464844 13.917969 20.476562 13.929688 20.484375 L 15.269531 21.488281 C 15.285156 21.5 15.308594 21.503906 15.328125 21.5 L 15.898438 21.347656 C 15.90625 21.34375 15.914062 21.339844 15.921875 21.332031 L 16.234375 21.089844 L 16.398438 21.070312 L 16.503906 21.273438 C 16.515625 21.300781 16.546875 21.3125 16.574219 21.3125 L 17.238281 21.226562 C 17.257812 21.222656 17.277344 21.210938 17.289062 21.195312 L 17.558594 20.796875 L 18.148438 20.699219 L 18.667969 21.015625 C 18.675781 21.019531 18.683594 21.023438 18.691406 21.027344 L 19.222656 21.121094 C 19.242188 21.125 19.265625 21.117188 19.28125 21.097656 L 19.457031 20.914062 L 19.660156 21.058594 L 19.621094 22.019531 C 19.621094 22.03125 19.625 22.046875 19.632812 22.058594 L 20.050781 22.695312 C 20.058594 22.707031 20.066406 22.714844 20.078125 22.71875 L 20.5625 22.972656 L 20.738281 23.460938 L 21.011719 24.054688 L 20.832031 24.429688 L 20.597656 24.929688 C 20.59375 24.9375 20.589844 24.945312 20.589844 24.957031 L 20.558594 25.710938 C 20.554688 25.734375 20.5625 25.753906 20.578125 25.765625 L 21.226562 26.347656 L 21.375 27.117188 C 21.375 27.128906 21.382812 27.140625 21.390625 27.148438 L 21.863281 27.699219 L 21.996094 28.332031 C 22 28.363281 22.027344 28.382812 22.058594 28.386719 L 22.632812 28.425781 C 22.648438 28.425781 22.660156 28.421875 22.671875 28.414062 L 23.089844 28.171875 L 23.707031 28.140625 C 23.722656 28.140625 23.734375 28.136719 23.746094 28.125 L 24.644531 27.394531 C 24.648438 27.390625 24.652344 27.386719 24.65625 27.382812 L 25.304688 26.582031 C 25.308594 26.574219 25.3125 26.566406 25.316406 26.554688 L 25.410156 26.230469 L 25.949219 25.703125 C 25.960938 25.6875 25.96875 25.667969 25.96875 25.648438 L 25.898438 24.917969 L 26.617188 24.195312 L 27.09375 23.726562 C 27.109375 23.714844 27.117188 23.695312 27.117188 23.675781 L 27.097656 23.15625 L 27.246094 22.878906 C 27.253906 22.867188 27.257812 22.851562 27.253906 22.835938 L 27.160156 22.300781 C 27.15625 22.28125 27.144531 22.265625 27.125 22.253906 L 26.785156 22.054688 L 26.703125 21.566406 L 26.875 20.960938 L 27.4375 19.800781 L 28.128906 18.742188 C 28.136719 18.734375 28.140625 18.726562 28.140625 18.714844 L 28.277344 17.832031 L 28.339844 17.183594 C 28.339844 17.179688 28.339844 17.171875 28.339844 17.167969 L 28.25 16.679688 C 28.25 16.667969 28.242188 16.652344 28.230469 16.644531 L 27.992188 16.429688 C 27.96875 16.410156 27.929688 16.40625 27.90625 16.429688 L 27.117188 17.046875 L 26.980469 17.054688 L 26.957031 16.941406 L 26.972656 16.945312 C 27.003906 16.957031 27.035156 16.949219 27.054688 16.925781 L 27.984375 15.8125 C 27.992188 15.804688 27.996094 15.796875 28 15.785156 L 28.121094 15.277344 L 28.453125 14.851562 C 28.460938 14.839844 28.464844 14.828125 28.464844 14.8125 L 28.480469 13.53125 C 28.480469 13.507812 28.46875 13.484375 28.449219 13.472656 L 27.71875 13.039062 L 27.746094 13.050781 C 27.757812 13.054688 27.769531 13.054688 27.78125 13.054688 L 28.3125 12.984375 C 28.332031 12.984375 28.347656 12.972656 28.359375 12.960938 L 28.625 12.613281 L 29.222656 12.996094 C 29.234375 13.003906 29.253906 13.007812 29.269531 13.007812 L 29.492188 12.976562 L 29.886719 13.582031 L 30.839844 15.203125 C 30.847656 15.21875 30.867188 15.230469 30.886719 15.234375 L 31.261719 15.296875 L 31.265625 15.402344 C 31.265625 15.417969 31.269531 15.433594 31.28125 15.445312 L 31.628906 15.832031 C 31.644531 15.847656 31.664062 15.859375 31.6875 15.855469 C 31.710938 15.855469 31.730469 15.839844 31.742188 15.824219 L 32.046875 15.316406 C 32.058594 15.292969 32.0625 15.269531 32.050781 15.25 L 31.734375 14.636719 C 31.726562 14.621094 31.707031 14.605469 31.6875 14.601562 C 31.667969 14.597656 31.648438 14.601562 31.632812 14.613281 L 31.324219 14.839844 L 31.304688 14.609375 L 31.300781 13.726562 C 31.300781 13.722656 31.300781 13.71875 31.300781 13.714844 L 31.109375 12.636719 L 31.726562 11.746094 L 32.222656 12.070312 L 32.890625 12.992188 C 32.910156 13.019531 32.945312 13.027344 32.972656 13.015625 L 33.398438 12.832031 L 33.71875 13.851562 L 34.023438 14.804688 C 34.023438 14.816406 34.03125 14.824219 34.039062 14.832031 L 34.140625 14.941406 C 33.355469 17.605469 31.371094 19.921875 28.859375 22.671875 Z M 16.042969 9.734375 L 15.847656 9.316406 C 15.832031 9.28125 15.792969 9.265625 15.757812 9.28125 L 15.4375 9.425781 C 15.429688 9.429688 15.421875 9.433594 15.417969 9.441406 L 15.414062 8.859375 L 15.6875 8.839844 C 15.703125 8.835938 15.71875 8.832031 15.730469 8.820312 L 15.816406 8.742188 L 15.921875 9.359375 C 15.921875 9.378906 15.933594 9.394531 15.945312 9.402344 L 16.332031 9.699219 L 16.300781 9.9375 L 15.941406 10.164062 L 15.75 10.269531 L 15.664062 10.242188 L 15.730469 9.917969 L 16.003906 9.828125 C 16.023438 9.824219 16.035156 9.808594 16.042969 9.792969 C 16.050781 9.773438 16.050781 9.753906 16.042969 9.734375 Z M 15.371094 9.542969 L 15.269531 9.800781 L 14.859375 9.953125 L 14.84375 9.785156 Z M 31.5625 15.308594 L 31.558594 15.039062 L 31.589844 15.015625 L 31.722656 15.269531 L 31.644531 15.398438 Z M 34.25 14.53125 L 34.164062 14.261719 L 34.289062 14.363281 C 34.277344 14.421875 34.261719 14.476562 34.25 14.53125 Z M 34.382812 13.902344 L 34.269531 13.347656 L 34.445312 13.429688 C 34.429688 13.589844 34.40625 13.746094 34.382812 13.902344 Z M 34.496094 12.617188 L 34.496094 12.644531 C 34.496094 12.664062 34.496094 12.679688 34.496094 12.699219 C 34.496094 12.757812 34.492188 12.816406 34.492188 12.875 C 34.488281 12.957031 34.480469 13.035156 34.476562 13.113281 L 33.980469 12.875 C 33.957031 12.863281 33.929688 12.867188 33.90625 12.882812 C 33.886719 12.898438 33.878906 12.925781 33.882812 12.953125 L 34.117188 14.109375 L 33.613281 12.5 C 33.605469 12.480469 33.59375 12.464844 33.574219 12.457031 C 33.558594 12.449219 33.535156 12.449219 33.519531 12.457031 L 33.027344 12.667969 L 32.445312 11.863281 C 32.4375 11.855469 32.433594 11.851562 32.425781 11.84375 L 31.703125 11.371094 C 31.671875 11.351562 31.628906 11.359375 31.605469 11.390625 L 30.804688 12.546875 C 30.796875 12.5625 30.792969 12.578125 30.792969 12.597656 L 31 13.75 L 31.003906 14.621094 L 31.027344 14.933594 L 30.144531 13.421875 L 29.664062 12.691406 C 29.648438 12.671875 29.621094 12.660156 29.597656 12.664062 L 29.3125 12.699219 L 28.609375 12.246094 C 28.582031 12.226562 28.539062 12.234375 28.519531 12.261719 L 28.179688 12.703125 L 27.800781 12.75 L 27.386719 12.582031 C 27.363281 12.574219 27.335938 12.578125 27.316406 12.59375 L 26.992188 12.851562 L 26.820312 12.679688 C 26.8125 12.671875 26.804688 12.664062 26.792969 12.660156 L 26.085938 12.445312 C 26.070312 12.4375 26.050781 12.441406 26.035156 12.449219 C 26.019531 12.457031 26.007812 12.472656 26 12.492188 L 25.898438 12.832031 C 25.894531 12.851562 25.894531 12.871094 25.90625 12.890625 L 26.125 13.210938 C 26.132812 13.226562 26.148438 13.234375 26.164062 13.238281 L 26.820312 13.421875 L 26.9375 13.773438 C 26.949219 13.808594 26.988281 13.828125 27.027344 13.816406 L 27.472656 13.664062 C 27.484375 13.660156 27.492188 13.65625 27.5 13.644531 L 27.730469 13.394531 L 28.179688 13.664062 L 28.167969 14.730469 L 27.855469 15.132812 C 27.847656 15.140625 27.84375 15.152344 27.839844 15.160156 L 27.71875 15.664062 L 26.929688 16.605469 L 26.640625 16.492188 L 26.511719 16.015625 C 26.507812 16 26.492188 15.980469 26.476562 15.972656 L 26.222656 15.855469 L 26.132812 15.496094 C 26.125 15.476562 26.113281 15.460938 26.097656 15.453125 L 25.660156 15.207031 L 25.34375 14.941406 L 25.1875 14.660156 C 25.183594 14.652344 25.179688 14.644531 25.171875 14.636719 L 24.679688 14.261719 L 24.125 13.726562 C 24.105469 13.707031 24.082031 13.703125 24.058594 13.707031 L 23.640625 13.835938 C 23.621094 13.839844 23.605469 13.855469 23.597656 13.871094 C 23.589844 13.890625 23.589844 13.910156 23.597656 13.929688 L 23.804688 14.355469 C 23.804688 14.359375 23.808594 14.363281 23.808594 14.363281 L 24.140625 14.816406 C 24.144531 14.820312 24.148438 14.824219 24.148438 14.828125 L 24.941406 15.539062 L 24.996094 15.964844 C 25 15.988281 25.019531 16.011719 25.046875 16.019531 L 25.292969 16.09375 L 26.394531 16.980469 C 26.40625 16.988281 26.417969 16.992188 26.429688 16.996094 L 26.671875 17.035156 L 26.726562 17.308594 C 26.734375 17.339844 26.765625 17.363281 26.796875 17.363281 L 27.207031 17.339844 C 27.222656 17.339844 27.234375 17.335938 27.246094 17.328125 L 27.9375 16.785156 L 27.96875 16.8125 L 28.039062 17.1875 L 27.976562 17.792969 L 27.851562 18.621094 L 27.179688 19.644531 C 27.179688 19.648438 27.175781 19.652344 27.175781 19.652344 L 26.597656 20.84375 C 26.59375 20.847656 26.59375 20.851562 26.59375 20.855469 L 26.398438 21.535156 C 26.394531 21.546875 26.394531 21.554688 26.398438 21.566406 L 26.507812 22.210938 C 26.511719 22.230469 26.523438 22.246094 26.539062 22.257812 L 26.878906 22.457031 L 26.945312 22.808594 L 26.800781 23.066406 C 26.796875 23.078125 26.792969 23.089844 26.792969 23.101562 L 26.8125 23.585938 L 26.40625 23.984375 L 25.605469 24.785156 C 25.589844 24.800781 25.585938 24.820312 25.585938 24.839844 L 25.65625 25.566406 L 25.15625 26.058594 C 25.144531 26.066406 25.140625 26.078125 25.136719 26.089844 L 25.039062 26.429688 L 24.441406 27.175781 L 23.617188 27.847656 L 23.019531 27.878906 C 23.007812 27.878906 22.996094 27.882812 22.988281 27.886719 L 22.582031 28.121094 L 22.253906 28.101562 L 22.144531 27.582031 C 22.144531 27.570312 22.136719 27.558594 22.128906 27.550781 L 21.660156 27.003906 L 21.507812 26.214844 C 21.507812 26.199219 21.5 26.1875 21.488281 26.175781 L 20.863281 25.617188 L 20.886719 25.015625 L 21.101562 24.558594 L 21.328125 24.085938 C 21.339844 24.066406 21.339844 24.046875 21.332031 24.027344 L 21.015625 23.347656 L 20.816406 22.789062 C 20.808594 22.773438 20.796875 22.757812 20.78125 22.75 L 20.269531 22.484375 L 19.925781 21.957031 L 19.964844 20.945312 C 19.964844 20.921875 19.953125 20.902344 19.933594 20.886719 L 19.46875 20.554688 C 19.441406 20.535156 19.402344 20.539062 19.378906 20.566406 L 19.148438 20.804688 L 18.789062 20.738281 L 18.234375 20.402344 C 18.21875 20.390625 18.203125 20.386719 18.1875 20.390625 L 17.410156 20.519531 C 17.390625 20.519531 17.375 20.53125 17.363281 20.546875 L 17.097656 20.941406 L 16.695312 20.992188 L 16.589844 20.789062 C 16.578125 20.761719 16.550781 20.75 16.519531 20.753906 L 16.132812 20.800781 C 16.117188 20.804688 16.105469 20.808594 16.097656 20.816406 L 15.773438 21.070312 L 15.359375 21.183594 L 14.167969 20.289062 L 14.019531 19.847656 C 14.015625 19.835938 14.007812 19.824219 13.996094 19.816406 L 13.339844 19.296875 L 13.222656 18.832031 L 13.429688 18.304688 C 13.429688 18.296875 13.433594 18.289062 13.433594 18.28125 L 13.441406 17.550781 C 13.441406 17.539062 13.4375 17.53125 13.433594 17.523438 L 13.214844 16.988281 L 14.027344 15.8125 L 14.605469 15.453125 C 14.617188 15.445312 14.625 15.433594 14.628906 15.421875 L 14.839844 14.976562 C 14.84375 14.964844 14.84375 14.957031 14.84375 14.945312 L 14.839844 14.582031 L 15.425781 14.023438 L 15.996094 13.949219 C 16.003906 13.949219 16.007812 13.945312 16.015625 13.945312 L 16.425781 13.765625 C 16.429688 13.765625 16.433594 13.765625 16.4375 13.761719 L 16.773438 13.539062 L 17.203125 13.53125 C 17.214844 13.53125 17.222656 13.527344 17.230469 13.523438 L 17.59375 13.359375 L 18.453125 13.226562 L 18.550781 13.3125 L 18.644531 13.84375 C 18.652344 13.878906 18.679688 13.902344 18.714844 13.902344 L 19.667969 13.898438 L 19.824219 14.148438 C 19.835938 14.164062 19.851562 14.175781 19.871094 14.179688 L 20.8125 14.335938 C 20.832031 14.335938 20.851562 14.332031 20.867188 14.320312 C 20.882812 14.308594 20.890625 14.289062 20.894531 14.273438 L 20.945312 13.578125 L 21.261719 13.472656 L 21.839844 13.734375 C 21.851562 13.738281 21.859375 13.742188 21.871094 13.742188 L 22.765625 13.734375 C 22.800781 13.734375 22.832031 13.703125 22.832031 13.667969 L 22.84375 13.425781 L 23.511719 13.339844 C 23.515625 13.339844 23.515625 13.339844 23.515625 13.339844 C 23.550781 13.335938 23.578125 13.300781 23.574219 13.261719 C 23.574219 13.257812 23.574219 13.253906 23.570312 13.25 L 23.359375 11.851562 C 23.355469 11.824219 23.339844 11.800781 23.3125 11.792969 C 23.285156 11.789062 23.257812 11.796875 23.242188 11.816406 L 22.859375 12.25 L 22.621094 12.066406 C 22.605469 12.054688 22.582031 12.046875 22.566406 12.050781 L 22.148438 12.128906 L 21.714844 12.089844 L 21.53125 11.671875 C 21.550781 11.675781 21.566406 11.667969 21.582031 11.660156 L 21.804688 11.488281 L 22.097656 11.40625 C 22.125 11.398438 22.144531 11.375 22.148438 11.351562 L 22.183594 11.113281 L 22.578125 11.050781 L 22.742188 11.1875 C 22.757812 11.199219 22.773438 11.207031 22.792969 11.203125 L 23.054688 11.191406 C 23.085938 11.1875 23.113281 11.167969 23.117188 11.136719 L 23.152344 11.003906 L 23.371094 10.972656 C 23.390625 10.972656 23.40625 10.960938 23.417969 10.945312 C 23.429688 10.929688 23.433594 10.910156 23.429688 10.894531 L 23.363281 10.546875 C 23.359375 10.523438 23.34375 10.503906 23.324219 10.496094 L 22.800781 10.28125 C 22.789062 10.277344 22.78125 10.273438 22.769531 10.277344 L 22.585938 10.289062 L 22.421875 9.988281 C 22.417969 9.976562 22.40625 9.964844 22.390625 9.960938 L 22.21875 9.878906 C 22.183594 9.863281 22.144531 9.875 22.128906 9.90625 L 22.027344 10.089844 C 22.023438 10.097656 22.023438 10.101562 22.019531 10.109375 L 21.976562 10.308594 L 21.9375 10.253906 C 21.921875 10.238281 21.902344 10.226562 21.882812 10.226562 L 21.695312 10.21875 L 21.394531 10.183594 C 21.375 10.183594 21.355469 10.1875 21.34375 10.199219 C 21.328125 10.210938 21.320312 10.230469 21.316406 10.246094 L 21.296875 10.511719 L 21.21875 10.566406 C 21.199219 10.578125 21.1875 10.601562 21.1875 10.625 L 21.230469 11.214844 C 21.234375 11.242188 21.253906 11.265625 21.28125 11.273438 L 21.402344 11.3125 L 21.445312 11.492188 C 21.433594 11.480469 21.421875 11.476562 21.40625 11.472656 L 20.800781 11.394531 C 20.78125 11.394531 20.761719 11.398438 20.746094 11.414062 C 20.730469 11.425781 20.722656 11.445312 20.722656 11.464844 L 20.722656 11.949219 C 20.71875 11.964844 20.726562 11.980469 20.738281 11.996094 L 21.019531 12.304688 L 21 12.398438 L 20.84375 12.328125 L 20.40625 12.066406 L 20.234375 11.414062 C 20.230469 11.398438 20.222656 11.386719 20.210938 11.375 L 19.839844 11.09375 C 19.835938 11.089844 19.832031 11.085938 19.828125 11.085938 L 18.796875 10.617188 C 18.765625 10.601562 18.730469 10.613281 18.710938 10.640625 L 18.347656 11.179688 C 18.335938 11.195312 18.332031 11.214844 18.339844 11.234375 C 18.34375 11.253906 18.355469 11.269531 18.371094 11.277344 L 19.503906 11.855469 L 19.617188 12.0625 L 19.574219 12.371094 L 19.460938 12.738281 L 19.085938 12.683594 L 19.082031 12.632812 L 19.347656 12.476562 C 19.367188 12.464844 19.378906 12.445312 19.382812 12.421875 L 19.402344 12.058594 C 19.402344 12.035156 19.390625 12.011719 19.367188 11.996094 L 18.539062 11.539062 L 18.296875 11.242188 C 18.28125 11.222656 18.257812 11.214844 18.234375 11.214844 L 17.875 11.261719 C 17.859375 11.265625 17.84375 11.273438 17.832031 11.285156 L 17.570312 11.570312 L 16.960938 11.671875 C 16.929688 11.679688 16.90625 11.707031 16.90625 11.738281 L 16.898438 12.050781 L 16.472656 12.394531 C 16.460938 12.402344 16.453125 12.414062 16.449219 12.425781 L 16.238281 13.058594 L 15.65625 13.273438 C 15.632812 13.28125 15.617188 13.304688 15.613281 13.328125 L 15.59375 13.480469 L 15.5 13.511719 L 15.445312 13.246094 C 15.441406 13.226562 15.433594 13.210938 15.417969 13.203125 C 15.402344 13.191406 15.382812 13.1875 15.363281 13.191406 L 14.925781 13.289062 L 14.871094 12.859375 L 14.992188 12.632812 C 14.992188 12.625 14.996094 12.617188 14.996094 12.609375 L 15.0625 12.160156 L 16.230469 11.914062 C 16.261719 11.910156 16.285156 11.878906 16.285156 11.84375 L 16.230469 10.972656 C 16.226562 10.941406 16.207031 10.917969 16.175781 10.910156 L 15.863281 10.84375 L 15.847656 10.78125 L 16.023438 10.742188 C 16.03125 10.742188 16.039062 10.738281 16.046875 10.734375 L 16.628906 10.355469 C 16.636719 10.351562 16.640625 10.347656 16.648438 10.339844 L 17.050781 9.820312 L 17.414062 9.613281 C 17.601562 9.886719 17.777344 10.171875 17.933594 10.453125 L 18.042969 10.65625 C 18.058594 10.679688 18.085938 10.695312 18.113281 10.691406 C 18.140625 10.6875 18.164062 10.667969 18.171875 10.640625 L 18.226562 10.417969 C 18.328125 10.011719 18.40625 9.742188 18.574219 9.328125 L 19.210938 9.128906 C 19.238281 9.121094 19.253906 9.097656 19.257812 9.070312 L 19.292969 8.402344 L 20.097656 8.265625 C 20.121094 8.261719 20.144531 8.246094 20.152344 8.21875 L 20.21875 8.011719 C 20.226562 7.988281 20.21875 7.964844 20.203125 7.945312 L 19.671875 7.363281 C 19.691406 7.292969 19.746094 7.136719 19.839844 7.003906 L 20.152344 6.597656 C 20.359375 6.347656 20.578125 6.101562 20.8125 5.867188 L 20.824219 5.855469 C 20.84375 5.835938 20.867188 5.8125 20.890625 5.789062 C 20.933594 5.75 20.972656 5.710938 21.019531 5.667969 C 21.085938 5.605469 21.152344 5.542969 21.21875 5.484375 L 21.257812 5.449219 C 21.6875 5.066406 22.152344 4.726562 22.632812 4.429688 L 22.65625 4.417969 C 22.730469 4.371094 22.808594 4.328125 22.882812 4.285156 L 22.898438 4.273438 C 22.941406 4.25 22.984375 4.226562 23.03125 4.203125 C 23.058594 4.1875 23.085938 4.171875 23.113281 4.15625 L 23.132812 4.144531 C 24.050781 3.664062 25.011719 3.355469 25.988281 3.230469 C 29.894531 2.726562 32.957031 5.28125 34.179688 10.066406 C 34.222656 10.226562 34.257812 10.386719 34.292969 10.550781 L 33.972656 10.867188 C 33.953125 10.886719 33.945312 10.917969 33.957031 10.945312 L 34.238281 11.554688 C 34.246094 11.570312 34.257812 11.582031 34.273438 11.589844 L 34.460938 11.671875 C 34.488281 11.992188 34.503906 12.308594 34.496094 12.617188 Z M 27.703125 13.03125 C 27.679688 13.023438 27.652344 13.03125 27.632812 13.050781 L 27.316406 13.398438 L 27.148438 13.457031 L 27.066406 13.210938 C 27.0625 13.203125 27.058594 13.195312 27.050781 13.1875 L 27.398438 12.910156 Z M 26.824219 13.113281 L 26.328125 12.972656 L 26.21875 12.8125 L 26.222656 12.800781 L 26.644531 12.929688 Z M 25.207031 15.375 L 24.375 14.628906 L 24.070312 14.210938 L 23.988281 14.042969 L 24.011719 14.035156 L 24.476562 14.480469 C 24.476562 14.484375 24.480469 14.484375 24.480469 14.488281 L 24.945312 14.84375 L 25.097656 15.121094 C 25.101562 15.128906 25.109375 15.136719 25.113281 15.144531 L 25.480469 15.445312 C 25.484375 15.445312 25.484375 15.449219 25.488281 15.453125 L 25.863281 15.664062 L 25.957031 16.035156 C 25.960938 16.054688 25.976562 16.070312 25.996094 16.078125 L 26.25 16.199219 L 26.347656 16.554688 L 25.449219 15.832031 C 25.441406 15.824219 25.433594 15.820312 25.425781 15.820312 L 25.277344 15.777344 L 25.230469 15.414062 C 25.226562 15.398438 25.21875 15.386719 25.207031 15.375 Z M 18.867188 12.953125 L 19.617188 13.0625 C 19.652344 13.066406 19.683594 13.046875 19.691406 13.015625 L 19.867188 12.445312 C 19.867188 12.441406 19.867188 12.4375 19.867188 12.433594 L 19.925781 12.027344 C 19.925781 12.015625 19.925781 12 19.917969 11.988281 L 19.734375 11.648438 C 19.726562 11.636719 19.71875 11.628906 19.703125 11.621094 L 18.742188 11.128906 L 18.851562 10.96875 L 19.671875 11.339844 L 19.96875 11.566406 L 20.140625 12.234375 C 20.144531 12.253906 20.15625 12.269531 20.171875 12.277344 L 20.691406 12.585938 C 20.695312 12.589844 20.699219 12.589844 20.699219 12.589844 L 21.136719 12.785156 C 21.15625 12.796875 21.175781 12.792969 21.195312 12.785156 C 21.214844 12.777344 21.226562 12.757812 21.230469 12.738281 L 21.339844 12.253906 C 21.34375 12.230469 21.335938 12.210938 21.320312 12.195312 L 21.023438 11.859375 L 21.023438 11.726562 L 21.238281 11.753906 L 21.496094 12.335938 C 21.503906 12.359375 21.527344 12.371094 21.550781 12.375 L 22.152344 12.429688 C 22.15625 12.433594 22.164062 12.433594 22.171875 12.429688 L 22.515625 12.363281 L 22.847656 12.617188 C 22.875 12.640625 22.917969 12.636719 22.941406 12.609375 L 23.136719 12.386719 L 23.238281 13.074219 L 22.609375 13.15625 C 22.574219 13.160156 22.550781 13.1875 22.546875 13.21875 L 22.539062 13.4375 L 21.917969 13.441406 L 21.300781 13.160156 C 21.285156 13.152344 21.269531 13.152344 21.25 13.15625 L 20.703125 13.34375 C 20.679688 13.351562 20.660156 13.375 20.660156 13.402344 L 20.613281 13.996094 L 20.023438 13.898438 L 19.855469 13.628906 C 19.839844 13.609375 19.820312 13.597656 19.796875 13.597656 L 18.90625 13.601562 L 18.832031 13.179688 C 18.832031 13.164062 18.824219 13.148438 18.8125 13.140625 L 18.570312 12.929688 C 18.554688 12.914062 18.535156 12.910156 18.515625 12.910156 L 17.527344 13.066406 C 17.519531 13.066406 17.515625 13.066406 17.507812 13.070312 L 17.148438 13.230469 L 16.695312 13.242188 C 16.683594 13.242188 16.671875 13.246094 16.660156 13.253906 L 16.292969 13.496094 L 15.9375 13.65625 L 15.875 13.664062 C 15.875 13.660156 15.875 13.660156 15.875 13.660156 L 15.894531 13.503906 L 16.445312 13.300781 C 16.464844 13.292969 16.480469 13.277344 16.488281 13.257812 L 16.714844 12.582031 L 17.167969 12.214844 C 17.183594 12.203125 17.195312 12.183594 17.195312 12.164062 L 17.199219 11.933594 L 17.699219 11.851562 C 17.714844 11.847656 17.726562 11.839844 17.738281 11.828125 L 17.996094 11.546875 L 18.144531 11.53125 L 18.332031 11.761719 C 18.335938 11.765625 18.34375 11.773438 18.351562 11.777344 L 19.09375 12.1875 L 19.085938 12.28125 L 18.796875 12.453125 C 18.769531 12.464844 18.757812 12.492188 18.761719 12.519531 L 18.808594 12.894531 C 18.8125 12.925781 18.835938 12.949219 18.867188 12.953125 Z M 21.519531 11.03125 L 21.5 10.738281 L 21.558594 10.699219 C 21.574219 10.6875 21.585938 10.667969 21.585938 10.648438 L 21.597656 10.507812 L 21.671875 10.519531 L 21.757812 10.519531 L 21.867188 10.671875 C 21.886719 10.699219 21.925781 10.710938 21.953125 10.695312 L 22.199219 10.574219 C 22.222656 10.5625 22.234375 10.542969 22.238281 10.523438 L 22.261719 10.328125 L 22.390625 10.566406 C 22.402344 10.589844 22.429688 10.601562 22.457031 10.601562 L 22.738281 10.578125 L 23.0625 10.710938 L 22.957031 10.726562 C 22.929688 10.730469 22.90625 10.75 22.898438 10.777344 L 22.867188 10.902344 L 22.691406 10.753906 C 22.675781 10.742188 22.65625 10.738281 22.636719 10.738281 L 21.964844 10.84375 C 21.9375 10.847656 21.910156 10.871094 21.90625 10.898438 L 21.871094 11.160156 L 21.6875 11.210938 L 21.667969 11.113281 C 21.660156 11.089844 21.644531 11.070312 21.621094 11.0625 Z M 34.300781 10.964844 L 34.359375 10.90625 C 34.378906 11.003906 34.390625 11.101562 34.40625 11.199219 Z M 5.8125 16.082031 L 5.675781 15.746094 C 5.667969 15.722656 5.640625 15.707031 5.613281 15.707031 L 4.761719 15.683594 C 4.730469 15.679688 4.707031 15.699219 4.695312 15.726562 L 4.484375 16.292969 C 4.476562 16.3125 4.476562 16.332031 4.488281 16.351562 C 4.5 16.367188 4.515625 16.378906 4.539062 16.382812 L 4.90625 16.4375 L 5.222656 16.59375 L 5.351562 17.019531 L 5.179688 17.714844 C 5.171875 17.738281 5.179688 17.765625 5.199219 17.78125 L 5.332031 17.894531 C 5.347656 17.90625 5.367188 17.914062 5.386719 17.910156 C 5.398438 17.910156 5.414062 17.902344 5.425781 17.890625 L 5.699219 17.605469 C 5.703125 17.601562 5.703125 17.601562 5.703125 17.597656 L 6.183594 16.988281 C 6.199219 16.96875 6.203125 16.941406 6.191406 16.917969 Z M 5.605469 17.25 L 5.660156 17.03125 C 5.664062 17.019531 5.664062 17.007812 5.660156 16.996094 L 5.484375 16.414062 C 5.476562 16.394531 5.464844 16.378906 5.449219 16.371094 L 5.019531 16.160156 C 5.015625 16.15625 5.007812 16.15625 5 16.152344 L 4.863281 16.132812 L 4.914062 16 L 5.449219 15.988281 L 5.535156 16.199219 L 5.871094 16.9375 Z M 4.460938 15.703125 L 4.644531 15.304688 C 4.648438 15.292969 4.652344 15.273438 4.648438 15.257812 L 4.394531 14.320312 C 4.390625 14.304688 4.378906 14.289062 4.363281 14.28125 L 3.417969 13.769531 C 3.390625 13.753906 3.359375 13.757812 3.339844 13.777344 C 3.316406 13.796875 3.308594 13.828125 3.320312 13.851562 L 3.621094 14.621094 L 3.894531 15.605469 C 3.902344 15.628906 3.921875 15.648438 3.945312 15.652344 L 4.382812 15.742188 C 4.390625 15.746094 4.398438 15.746094 4.40625 15.746094 C 4.429688 15.742188 4.449219 15.726562 4.460938 15.703125 Z M 4.28125 15.433594 L 4.15625 15.421875 L 3.910156 14.53125 C 3.910156 14.53125 3.910156 14.527344 3.910156 14.523438 L 3.839844 14.347656 L 4.128906 14.492188 L 4.34375 15.292969 Z M 25.285156 10.667969 L 24.855469 10.390625 L 24.871094 10.378906 C 24.890625 10.359375 24.898438 10.328125 24.886719 10.300781 L 24.769531 10.003906 C 24.761719 9.984375 24.742188 9.964844 24.71875 9.964844 L 24.167969 9.878906 L 24.046875 9.746094 L 24.019531 9.617188 L 24.007812 9.265625 C 24.007812 9.242188 24 9.222656 23.980469 9.210938 C 23.964844 9.199219 23.941406 9.195312 23.921875 9.199219 L 23.503906 9.316406 C 23.476562 9.324219 23.460938 9.34375 23.453125 9.371094 L 23.410156 9.601562 L 23.292969 9.679688 C 23.265625 9.695312 23.257812 9.726562 23.261719 9.753906 L 23.347656 10.113281 C 23.351562 10.140625 23.375 10.160156 23.402344 10.167969 L 23.582031 10.203125 L 24.109375 10.59375 L 24.21875 10.859375 C 24.226562 10.871094 24.234375 10.882812 24.246094 10.890625 L 24.773438 11.214844 C 24.785156 11.222656 24.800781 11.226562 24.816406 11.222656 C 24.816406 11.222656 24.820312 11.222656 24.820312 11.222656 L 25.324219 11.140625 C 25.339844 11.140625 25.359375 11.128906 25.367188 11.113281 C 25.378906 11.097656 25.382812 11.078125 25.378906 11.0625 L 25.316406 10.714844 C 25.3125 10.695312 25.300781 10.679688 25.285156 10.667969 Z M 23.71875 9.929688 C 23.710938 9.925781 23.703125 9.921875 23.691406 9.917969 L 23.605469 9.902344 L 23.589844 9.839844 L 23.65625 9.796875 C 23.671875 9.785156 23.683594 9.769531 23.683594 9.753906 L 23.71875 9.589844 L 23.71875 9.648438 C 23.71875 9.652344 23.71875 9.65625 23.71875 9.660156 L 23.761719 9.867188 C 23.765625 9.878906 23.769531 9.890625 23.78125 9.902344 L 24 10.136719 Z M 24.855469 10.914062 L 24.46875 10.675781 L 24.363281 10.421875 C 24.359375 10.410156 24.351562 10.402344 24.34375 10.394531 L 24.019531 10.15625 C 24.027344 10.15625 24.03125 10.160156 24.039062 10.160156 L 24.539062 10.238281 L 24.546875 10.265625 L 24.429688 10.375 C 24.410156 10.386719 24.402344 10.40625 24.40625 10.429688 C 24.40625 10.449219 24.417969 10.46875 24.4375 10.480469 L 25.035156 10.867188 L 25.039062 10.882812 Z M 24.855469 10.914062 "/></g></g></g></g></g></svg>